<svg width="19" height="18" viewBox="0 0 19 18" fill="none" xmlns="http://www.w3.org/2000/svg">
<g id="Vector">
<mask id="path-1-inside-1_4_2881" fill="white">
<path d="M0.75 8.75773C0.75 7.23489 0.75 6.47348 1.10288 5.80419C1.45576 5.13489 2.11847 4.63937 3.4439 3.64832L4.72961 2.68697C7.1253 0.895655 8.32315 0 9.75 0C11.1768 0 12.3747 0.895655 14.7704 2.68697L16.0561 3.64832C17.3815 4.63937 18.0442 5.13489 18.3971 5.80419C18.75 6.47348 18.75 7.2349 18.75 8.75773V13.5137C18.75 15.6285 18.75 16.686 17.9968 17.343C17.2437 18 16.0315 18 13.6071 18H5.89286C3.46849 18 2.25631 18 1.50315 17.343C0.75 16.686 0.75 15.6285 0.75 13.5137V8.75773Z"/>
</mask>
<path d="M12.4643 18C12.4643 18.2761 12.6881 18.5 12.9643 18.5C13.2404 18.5 13.4643 18.2761 13.4643 18H12.4643ZM6.03571 18C6.03571 18.2761 6.25957 18.5 6.53571 18.5C6.81186 18.5 7.03571 18.2761 7.03571 18H6.03571ZM7.5 11.7705H12V10.7705H7.5V11.7705ZM12.4643 12.1117V18H13.4643V12.1117H12.4643ZM6.03571 12.1117V18H7.03571V12.1117H6.03571ZM12 11.7705C12.3227 11.7705 12.4643 11.9852 12.4643 12.1117H13.4643C13.4643 11.309 12.7424 10.7705 12 10.7705V11.7705ZM7.5 10.7705C6.75762 10.7705 6.03571 11.309 6.03571 12.1117H7.03571C7.03571 11.9852 7.17727 11.7705 7.5 11.7705V10.7705ZM4.72961 2.68697L5.32844 3.48784L5.32844 3.48784L4.72961 2.68697ZM14.7704 2.68697L14.1716 3.48784V3.48784L14.7704 2.68697ZM16.0561 3.64832L16.6549 2.84745V2.84745L16.0561 3.64832ZM3.4439 3.64832L2.84506 2.84745V2.84745L3.4439 3.64832ZM17.75 8.75773V13.5137H19.75V8.75773H17.75ZM13.6071 17H5.89286V19H13.6071V17ZM1.75 13.5137V8.75773H-0.25V13.5137H1.75ZM4.04273 4.4492L5.32844 3.48784L4.13078 1.88609L2.84506 2.84745L4.04273 4.4492ZM14.1716 3.48784L15.4573 4.4492L16.6549 2.84745L15.3692 1.88609L14.1716 3.48784ZM5.32844 3.48784C6.54557 2.57777 7.38892 1.94925 8.10234 1.53822C8.79021 1.1419 9.272 1 9.75 1V-1C8.80115 -1 7.97059 -0.694073 7.1039 -0.194735C6.26276 0.289885 5.30935 1.00485 4.13078 1.88609L5.32844 3.48784ZM15.3692 1.88609C14.1907 1.00485 13.2372 0.289885 12.3961 -0.194735C11.5294 -0.694073 10.6989 -1 9.75 -1V1C10.228 1 10.7098 1.1419 11.3977 1.53822C12.1111 1.94925 12.9544 2.57777 14.1716 3.48784L15.3692 1.88609ZM5.89286 17C4.65593 17 3.81614 16.9984 3.18779 16.9247C2.57577 16.8529 2.31786 16.7267 2.16052 16.5894L0.845785 18.0966C1.4416 18.6163 2.16636 18.8186 2.95482 18.9111C3.72694 19.0016 4.70541 19 5.89286 19V17ZM-0.25 13.5137C-0.25 14.5388 -0.252775 15.4228 -0.144186 16.1274C-0.0287672 16.8762 0.230309 17.5597 0.845785 18.0966L2.16052 16.5894C2.02285 16.4693 1.90534 16.2955 1.83248 15.8227C1.75277 15.3056 1.75 14.6034 1.75 13.5137H-0.25ZM17.75 13.5137C17.75 14.6034 17.7472 15.3056 17.6675 15.8227C17.5947 16.2955 17.4772 16.4693 17.3395 16.5894L18.6542 18.0966C19.2697 17.5597 19.5288 16.8762 19.6442 16.1274C19.7528 15.4228 19.75 14.5388 19.75 13.5137H17.75ZM13.6071 19C14.7946 19 15.7731 19.0016 16.5452 18.9111C17.3336 18.8186 18.0584 18.6163 18.6542 18.0966L17.3395 16.5894C17.1821 16.7267 16.9242 16.8529 16.3122 16.9247C15.6839 16.9984 14.8441 17 13.6071 17V19ZM19.75 8.75773C19.75 7.33536 19.7765 6.27631 19.2817 5.3378L17.5125 6.27057C17.7235 6.67065 17.75 7.13443 17.75 8.75773H19.75ZM15.4573 4.4492C16.1329 4.95434 16.5916 5.29829 16.9295 5.59662C17.2561 5.88482 17.4138 6.08332 17.5125 6.27057L19.2817 5.3378C19.0275 4.85575 18.6775 4.47185 18.2531 4.0972C17.8401 3.73269 17.3048 3.33335 16.6549 2.84745L15.4573 4.4492ZM1.75 8.75773C1.75 7.13443 1.77652 6.67065 1.98746 6.27057L0.218298 5.3378C-0.276524 6.27631 -0.25 7.33536 -0.25 8.75773H1.75ZM2.84506 2.84745C2.19522 3.33335 1.65987 3.73268 1.24691 4.0972C0.822485 4.47185 0.472452 4.85575 0.218298 5.3378L1.98746 6.27057C2.08618 6.08332 2.24395 5.88482 2.57045 5.59662C2.90842 5.29829 3.36714 4.95434 4.04273 4.4492L2.84506 2.84745Z" fill="#909995" mask="url(#path-1-inside-1_4_2881)"/>
</g>
</svg>
