<svg width="19" height="18" viewBox="0 0 19 18" fill="none" xmlns="http://www.w3.org/2000/svg">
<g id="Messages_ICON-01 1" clip-path="url(#clip0_1_1869)">
<path id="Vector" d="M2.14158 8.7559C2.14158 7.94251 2.14158 7.36835 2.17452 6.90901C2.20746 6.45925 2.2651 6.17217 2.36391 5.94251L1.63106 5.51189C1.45814 5.89466 1.38403 6.32528 1.3511 6.83246C1.31816 7.33964 1.31816 7.96165 1.31816 8.7559H2.14158ZM2.14158 9.90423V8.7559H1.31816V9.90423H2.14158ZM1.31816 9.90423V14.6889H2.14158V9.90423H1.31816ZM1.31816 14.6889V16.5167H2.14158V14.6889H1.31816ZM1.31816 16.5262C1.31816 17.3396 2.15805 17.7416 2.6521 17.1674L2.06747 16.488C2.06747 16.488 2.07571 16.4784 2.09218 16.4784C2.10041 16.4784 2.10865 16.4784 2.11688 16.4784C2.11688 16.4784 2.12511 16.488 2.13335 16.4975C2.14158 16.5071 2.14158 16.5262 2.14158 16.5262H1.31816ZM2.6521 17.1674L4.24954 15.3109L3.66491 14.6315L2.06747 16.488L2.6521 17.1674ZM10.1288 14.2105H4.53774V15.1674H10.1288V14.2105ZM12.5414 13.9521C12.3438 14.0669 12.0968 14.1339 11.7097 14.1722C11.3145 14.2105 10.8204 14.2105 10.1205 14.2105V15.1674C10.804 15.1674 11.3474 15.1674 11.7756 15.1291C12.212 15.0908 12.5743 15.0047 12.9119 14.8038L12.5414 13.9521ZM13.4389 12.909C13.2413 13.3588 12.9284 13.7224 12.5414 13.9521L12.9119 14.8038C13.4554 14.4784 13.8918 13.9712 14.1718 13.3396L13.4389 12.909ZM4.02722 3.72241C3.58257 3.77026 3.22027 3.85638 2.8909 4.04777L3.26144 4.89945C3.45906 4.78461 3.70608 4.71763 4.09309 4.67935L4.02722 3.72241ZM2.36391 5.95208C2.56153 5.50232 2.87443 5.12911 3.26144 4.89945L2.8909 4.04777C2.34744 4.37313 1.90279 4.88031 1.63106 5.51189L2.36391 5.95208ZM4.24954 15.3109C4.32365 15.2248 4.4307 15.1674 4.53774 15.1674V14.2105C4.20837 14.2105 3.89547 14.3636 3.66491 14.6315L4.24954 15.3109Z" fill="#DDBB5F"/>
<path id="Vector_2" d="M17.2843 5.61718C17.2843 4.80378 17.2843 4.22962 17.2514 3.77029C17.2184 3.32053 17.1608 3.04302 17.062 2.81335L17.7948 2.38273C17.9678 2.76551 18.0419 3.19613 18.0748 3.7033C18.1077 4.21048 18.1077 4.83249 18.1077 5.62675H17.2843V5.61718ZM17.2843 6.76551V5.61718H18.1077V6.76551H17.2843ZM18.1077 6.76551V11.5502H17.2843V6.76551H18.1077ZM18.1077 11.5502V13.3779H17.2843V11.5502H18.1077ZM18.1077 13.3875C18.1077 14.2009 17.2678 14.6028 16.7738 14.0287L17.3584 13.3492C17.3584 13.3492 17.3502 13.3397 17.3337 13.3397C17.3255 13.3397 17.3172 13.3397 17.309 13.3397C17.309 13.3397 17.3008 13.3492 17.2925 13.3588C17.2843 13.3684 17.2843 13.3875 17.2843 13.3875H18.1077ZM16.7738 14.0287L15.1764 12.1722L15.761 11.4928L17.3584 13.3492L16.7738 14.0287ZM9.29712 11.0717H14.8882V12.0287H9.29712V11.0717ZM6.88449 10.8134C7.08211 10.9282 7.32914 10.9952 7.71615 11.0334C8.11139 11.0717 8.60544 11.0717 9.30535 11.0717V12.0287C8.62191 12.0287 8.07845 12.0287 7.65028 11.9904C7.21386 11.9521 6.85156 11.866 6.51395 11.665L6.88449 10.8134ZM5.97873 9.77029C6.17635 10.2201 6.48925 10.5837 6.87626 10.8134L6.50572 11.665C5.96226 11.3397 5.52585 10.8325 5.24588 10.2009L5.97873 9.77029ZM5.75641 6.95689C5.75641 7.77029 5.75641 8.34445 5.78934 8.80378C5.82228 9.25354 5.87992 9.54063 5.97873 9.77029L5.24588 10.2009C5.07297 9.81814 4.99886 9.38752 4.96592 8.88034C4.93298 8.38273 4.93298 7.75115 4.93298 6.95689H5.75641ZM5.75641 5.61718V6.95689H4.93298V5.61718H5.75641ZM5.97873 2.81335C5.87992 3.04302 5.82228 3.32053 5.78934 3.77029C5.75641 4.22962 5.75641 4.80378 5.75641 5.61718H4.93298C4.93298 4.82292 4.93298 4.19134 4.96592 3.69374C4.99886 3.18656 5.07297 2.76551 5.24588 2.37316L5.97873 2.81335ZM6.88449 1.76072C6.49748 1.99039 6.17635 2.36359 5.97873 2.81335L5.24588 2.37316C5.52585 1.74158 5.96226 1.23441 6.50572 0.909047L6.88449 1.76072ZM9.29712 1.50235C8.59721 1.50235 8.10316 1.50235 7.70791 1.54063C7.32091 1.5789 7.08211 1.64589 6.88449 1.76072L6.50572 0.909047C6.83509 0.70809 7.20563 0.621965 7.64204 0.583688C8.07845 0.54541 8.61368 0.54541 9.29712 0.54541V1.50235ZM13.7436 1.50235H9.29712V0.54541H13.7436V1.50235ZM16.1645 1.76072C15.9668 1.64589 15.7198 1.5789 15.3328 1.54063C14.9376 1.50235 14.4435 1.50235 13.7436 1.50235V0.54541C14.427 0.54541 14.9705 0.54541 15.3987 0.583688C15.8351 0.621965 16.1974 0.70809 16.535 0.909047L16.1645 1.76072ZM17.062 2.81335C16.8644 2.36359 16.5515 1.99996 16.1645 1.77029L16.535 0.918616C17.0785 1.24397 17.5149 1.75115 17.7948 2.38273L17.062 2.81335ZM15.1764 12.1722C15.1022 12.0861 14.9952 12.0287 14.8882 12.0287V11.0717C15.2175 11.0717 15.5304 11.2248 15.761 11.4928L15.1764 12.1722Z" fill="#DDBB5F"/>
</g>
<defs>
<clipPath id="clip0_1_1869">
<rect width="18" height="18" fill="white" transform="translate(0.75)"/>
</clipPath>
</defs>
</svg>
