<svg width="19" height="18" viewBox="0 0 19 18" fill="none" xmlns="http://www.w3.org/2000/svg">
<g id="Messages_ICON-01 1" clip-path="url(#clip0_574_13208)">
<path id="Vector" d="M2.14158 8.75615C2.14158 7.94275 2.14158 7.36859 2.17452 6.90926C2.20746 6.4595 2.2651 6.17242 2.36391 5.94275L1.63106 5.51213C1.45814 5.89491 1.38403 6.32553 1.3511 6.8327C1.31816 7.33988 1.31816 7.96189 1.31816 8.75615H2.14158ZM2.14158 9.90447V8.75615H1.31816V9.90447H2.14158ZM1.31816 9.90447V14.6892H2.14158V9.90447H1.31816ZM1.31816 14.6892V16.5169H2.14158V14.6892H1.31816ZM1.31816 16.5265C1.31816 17.3399 2.15805 17.7418 2.6521 17.1676L2.06747 16.4882C2.06747 16.4882 2.07571 16.4786 2.09218 16.4786C2.10041 16.4786 2.10865 16.4786 2.11688 16.4786C2.11688 16.4786 2.12511 16.4882 2.13335 16.4978C2.14158 16.5073 2.14158 16.5265 2.14158 16.5265H1.31816ZM2.6521 17.1676L4.24954 15.3112L3.66491 14.6317L2.06747 16.4882L2.6521 17.1676ZM10.1288 14.2107H4.53774V15.1676H10.1288V14.2107ZM12.5414 13.9523C12.3438 14.0672 12.0968 14.1341 11.7097 14.1724C11.3145 14.2107 10.8204 14.2107 10.1205 14.2107V15.1676C10.804 15.1676 11.3474 15.1676 11.7756 15.1294C12.212 15.0911 12.5743 15.005 12.9119 14.804L12.5414 13.9523ZM13.4389 12.9093C13.2413 13.359 12.9284 13.7227 12.5414 13.9523L12.9119 14.804C13.4554 14.4786 13.8918 13.9715 14.1718 13.3399L13.4389 12.9093ZM4.02722 3.72266C3.58257 3.7705 3.22027 3.85663 2.8909 4.04802L3.26144 4.89969C3.45906 4.78486 3.70608 4.71787 4.09309 4.67959L4.02722 3.72266ZM2.36391 5.95232C2.56153 5.50256 2.87443 5.12935 3.26144 4.89969L2.8909 4.04802C2.34744 4.37337 1.90279 4.88055 1.63106 5.51213L2.36391 5.95232ZM4.24954 15.3112C4.32365 15.225 4.4307 15.1676 4.53774 15.1676V14.2107C4.20837 14.2107 3.89547 14.3638 3.66491 14.6317L4.24954 15.3112Z" fill="#909995"/>
<path id="Vector_2" d="M17.2843 5.61767C17.2843 4.80427 17.2843 4.23011 17.2514 3.77078C17.2184 3.32102 17.1608 3.04351 17.062 2.81384L17.7948 2.38322C17.9678 2.76599 18.0419 3.19662 18.0748 3.70379C18.1077 4.21097 18.1077 4.83298 18.1077 5.62724H17.2843V5.61767ZM17.2843 6.76599V5.61767H18.1077V6.76599H17.2843ZM18.1077 6.76599V11.5507H17.2843V6.76599H18.1077ZM18.1077 11.5507V13.3784H17.2843V11.5507H18.1077ZM18.1077 13.388C18.1077 14.2014 17.2678 14.6033 16.7738 14.0292L17.3584 13.3497C17.3584 13.3497 17.3502 13.3402 17.3337 13.3402C17.3255 13.3402 17.3172 13.3402 17.309 13.3402C17.309 13.3402 17.3008 13.3497 17.2925 13.3593C17.2843 13.3689 17.2843 13.388 17.2843 13.388H18.1077ZM16.7738 14.0292L15.1764 12.1727L15.761 11.4933L17.3584 13.3497L16.7738 14.0292ZM9.29712 11.0722H14.8882V12.0292H9.29712V11.0722ZM6.88449 10.8138C7.08211 10.9287 7.32914 10.9957 7.71615 11.0339C8.11139 11.0722 8.60544 11.0722 9.30535 11.0722V12.0292C8.62191 12.0292 8.07845 12.0292 7.65028 11.9909C7.21386 11.9526 6.85156 11.8665 6.51395 11.6655L6.88449 10.8138ZM5.97873 9.77078C6.17635 10.2205 6.48925 10.5842 6.87626 10.8138L6.50572 11.6655C5.96226 11.3402 5.52585 10.833 5.24588 10.2014L5.97873 9.77078ZM5.75641 6.95738C5.75641 7.77078 5.75641 8.34494 5.78934 8.80427C5.82228 9.25403 5.87992 9.54111 5.97873 9.77078L5.24588 10.2014C5.07297 9.81863 4.99886 9.388 4.96592 8.88083C4.93298 8.38322 4.93298 7.75164 4.93298 6.95738H5.75641ZM5.75641 5.61767V6.95738H4.93298V5.61767H5.75641ZM5.97873 2.81384C5.87992 3.04351 5.82228 3.32102 5.78934 3.77078C5.75641 4.23011 5.75641 4.80427 5.75641 5.61767H4.93298C4.93298 4.82341 4.93298 4.19183 4.96592 3.69422C4.99886 3.18705 5.07297 2.76599 5.24588 2.37365L5.97873 2.81384ZM6.88449 1.76121C6.49748 1.99087 6.17635 2.36408 5.97873 2.81384L5.24588 2.37365C5.52585 1.74207 5.96226 1.23489 6.50572 0.909535L6.88449 1.76121ZM9.29712 1.50284C8.59721 1.50284 8.10316 1.50284 7.70791 1.54111C7.32091 1.57939 7.08211 1.64638 6.88449 1.76121L6.50572 0.909535C6.83509 0.708578 7.20563 0.622453 7.64204 0.584176C8.07845 0.545898 8.61368 0.545898 9.29712 0.545898V1.50284ZM13.7436 1.50284H9.29712V0.545898H13.7436V1.50284ZM16.1645 1.76121C15.9668 1.64638 15.7198 1.57939 15.3328 1.54111C14.9376 1.50284 14.4435 1.50284 13.7436 1.50284V0.545898C14.427 0.545898 14.9705 0.545898 15.3987 0.584176C15.8351 0.622453 16.1974 0.708578 16.535 0.909535L16.1645 1.76121ZM17.062 2.81384C16.8644 2.36408 16.5515 2.00044 16.1645 1.77078L16.535 0.919104C17.0785 1.24446 17.5149 1.75164 17.7948 2.38322L17.062 2.81384ZM15.1764 12.1727C15.1022 12.0866 14.9952 12.0292 14.8882 12.0292V11.0722C15.2175 11.0722 15.5304 11.2253 15.761 11.4933L15.1764 12.1727Z" fill="#909995"/>
</g>
<defs>
<clipPath id="clip0_574_13208">
<rect width="18" height="18" fill="white" transform="translate(0.75)"/>
</clipPath>
</defs>
</svg>
