<svg width="18" height="18" viewBox="0 0 18 18" fill="none" xmlns="http://www.w3.org/2000/svg">
<g id="Setting_line_light">
<path id="Subtract" d="M10.6021 2.52108L10.1039 2.56394L10.1046 2.57083L10.6021 2.52108ZM10.6021 2.52105L11.1003 2.47819L11.0996 2.47129L10.6021 2.52105ZM10.6021 2.52109L11.0996 2.47134V2.47134L10.6021 2.52109ZM10.6516 2.9116L10.1664 3.03243L10.1664 3.03243L10.6516 2.9116ZM12.1373 3.52698L12.3949 3.95549H12.3949L12.1373 3.52698ZM12.4484 3.28585L12.765 3.67283L12.4484 3.28585ZM12.6214 3.1506L12.8984 3.56684L12.8984 3.56684L12.6214 3.1506ZM13.8096 3.20986L13.4925 3.59647L13.4925 3.59647L13.8096 3.20986ZM13.9682 3.36165L13.6147 3.7152L13.6147 3.7152L13.9682 3.36165ZM14.6383 4.03175L14.2848 4.3853L14.2848 4.3853L14.6383 4.03175ZM14.7901 4.1904L15.1767 3.87333L15.1767 3.87333L14.7901 4.1904ZM14.8494 5.37861L15.2656 5.65564L14.8494 5.37861ZM14.7142 5.55154L14.3271 5.23485L14.321 5.24263L14.7142 5.55154ZM14.7141 5.55158L15.1012 5.86826L15.1073 5.86049L14.7141 5.55158ZM14.473 5.86275L14.0445 5.60511L14.473 5.86275ZM15.0883 7.34837L15.2092 6.86319H15.2092L15.0883 7.34837ZM15.4789 7.39789L15.4291 7.89541L15.4789 7.39789ZM15.4789 7.39789L15.4291 7.89541L15.4789 7.39789ZM15.6969 7.42456L15.5984 7.91477L15.6969 7.42456ZM16.4952 8.30664L16.9927 8.25747V8.25747L16.4952 8.30664ZM16.4952 9.69328L15.9976 9.64414L15.9976 9.64415L16.4952 9.69328ZM15.6968 10.5755L15.5984 10.0852H15.5984L15.6968 10.5755ZM15.479 10.6021L15.5288 11.0996H15.5288L15.479 10.6021ZM15.479 10.6021L15.4292 10.1046H15.4292L15.479 10.6021ZM15.0888 10.6516L14.968 10.1664H14.968L15.0888 10.6516ZM14.4733 12.1374L14.0449 12.3951L14.0449 12.3951L14.4733 12.1374ZM14.7142 12.4482L15.1012 12.1316L15.1012 12.1316L14.7142 12.4482ZM14.8494 12.621L14.4331 12.898L14.4331 12.898L14.8494 12.621ZM14.7901 13.8093L14.4035 13.4922L14.7901 13.8093ZM14.6385 13.9678L14.992 14.3213L14.9921 14.3213L14.6385 13.9678ZM14.6384 13.9678L14.992 14.3214L14.6384 13.9678ZM13.9683 14.638L13.6147 14.2845L13.9683 14.638ZM13.8096 14.7898L14.1267 15.1764L14.1267 15.1764L13.8096 14.7898ZM12.6214 14.8491L12.8984 14.4328L12.8984 14.4328L12.6214 14.8491ZM12.4484 14.7138L12.7652 14.3267L12.7554 14.3191L12.4484 14.7138ZM12.4484 14.7138L12.1317 15.1009L12.1414 15.1085L12.4484 14.7138ZM12.1373 14.4727L11.8797 14.9012L11.8797 14.9012L12.1373 14.4727ZM10.6517 15.0881L10.1665 14.9672H10.1665L10.6517 15.0881ZM10.6021 15.4787L11.0996 15.5285V15.5285L10.6021 15.4787ZM10.5754 15.697L11.0656 15.7954V15.7954L10.5754 15.697ZM9.69343 16.4951L9.74264 16.9927L9.74265 16.9927L9.69343 16.4951ZM8.30664 16.4952L8.25747 16.9927L8.25747 16.9927L8.30664 16.4952ZM7.42456 15.6969L6.93434 15.7953L7.42456 15.6969ZM7.39789 15.4789L7.89541 15.4292L7.39789 15.4789ZM7.34837 15.0883L6.86319 15.2092H6.86319L7.34837 15.0883ZM5.86275 14.473L5.60512 14.0445L5.60512 14.0445L5.86275 14.473ZM5.55155 14.7141L5.23493 14.3272L5.2337 14.3282L5.55155 14.7141ZM5.55153 14.7142L5.86815 15.1011L5.86938 15.1001L5.55153 14.7142ZM5.37856 14.8494L5.10154 14.4332L5.10154 14.4332L5.37856 14.8494ZM4.19038 14.7902L3.87331 15.1768L3.87331 15.1768L4.19038 14.7902ZM4.03172 14.6384L3.67445 14.9882L3.67817 14.9919L4.03172 14.6384ZM4.0317 14.6383L4.38898 14.2885L4.38526 14.2848L4.0317 14.6383ZM3.36162 13.9683L3.71518 13.6147L3.70676 13.6063L3.69796 13.5983L3.36162 13.9683ZM3.36161 13.9682L3.00805 14.3218L3.01647 14.3302L3.02527 14.3382L3.36161 13.9682ZM3.20982 13.8096L3.59643 13.4925L3.20982 13.8096ZM3.15056 12.6214L3.5668 12.8984L3.5668 12.8984L3.15056 12.6214ZM3.2858 12.4485L3.67286 12.7651L3.67927 12.757L3.2858 12.4485ZM3.28583 12.4484L2.89876 12.1317L2.89236 12.1399L3.28583 12.4484ZM3.52697 12.1373L3.09846 11.8796L3.52697 12.1373ZM2.9116 10.6516L2.79077 11.1368H2.79077L2.9116 10.6516ZM2.52107 10.6021L2.57083 10.1045L2.56439 10.104L2.52107 10.6021ZM2.52105 10.6021L2.47129 11.0997L2.47774 11.1002L2.52105 10.6021ZM2.30313 10.5754L2.20469 11.0657H2.2047L2.30313 10.5754ZM1.50484 9.69335L2.00242 9.64418L2.00242 9.64418L1.50484 9.69335ZM1.50485 8.30658L1.00728 8.25737L1.50485 8.30658ZM2.30305 7.42457L2.40153 7.91478L2.40153 7.91478L2.30305 7.42457ZM2.52116 7.39788L2.47376 6.90013L2.47141 6.90036L2.52116 7.39788ZM2.52118 7.39788L2.56858 7.89564L2.57093 7.8954L2.52118 7.39788ZM2.91199 7.34832L2.79111 6.86316H2.79111L2.91199 7.34832ZM3.52731 5.86281L3.09877 6.1204L3.52731 5.86281ZM3.28596 5.55136L3.67294 5.23475L3.65715 5.21545L3.63951 5.19781L3.28596 5.55136ZM3.28596 5.55136L2.89898 5.86798L2.91477 5.88728L2.9324 5.90492L3.28596 5.55136ZM3.15053 5.37818L3.5668 5.10119L3.15053 5.37818ZM3.20979 4.19015L2.82315 3.87312L2.82315 3.87312L3.20979 4.19015ZM3.36175 4.03132L3.7153 4.38487L3.36175 4.03132ZM4.03174 3.36133L4.38529 3.71488L4.03174 3.36133ZM4.19041 3.20951L3.87334 2.8229L3.87334 2.8229L4.19041 3.20951ZM5.3786 3.15025L5.10157 3.56649L5.10157 3.56649L5.3786 3.15025ZM5.55164 3.28557L5.86826 2.89859V2.89859L5.55164 3.28557ZM5.55165 3.28557L5.86826 2.89859L5.55165 3.28557ZM5.86267 3.52662L5.60499 3.95511L5.86267 3.52662ZM7.34843 2.9112L7.83363 3.03197V3.03197L7.34843 2.9112ZM7.3979 2.52098L6.90038 2.47123V2.47123L7.3979 2.52098ZM7.42454 2.30321L6.93432 2.20481L6.93432 2.20481L7.42454 2.30321ZM8.30673 1.50484L8.35586 2.00242L8.35586 2.00242L8.30673 1.50484ZM9.69335 1.50485L9.74251 1.00727L9.74251 1.00727L9.69335 1.50485ZM10.5754 2.30313L11.0657 2.2047V2.2047L10.5754 2.30313ZM11.1003 2.47823L11.1003 2.47819L10.1039 2.5639L10.1039 2.56393L11.1003 2.47823ZM11.0996 2.47134L11.0996 2.47133L10.1046 2.57083L10.1046 2.57085L11.0996 2.47134ZM11.1368 2.79078C11.1305 2.76544 11.1232 2.70727 11.0996 2.47134L10.1046 2.57084C10.1237 2.76202 10.1378 2.9174 10.1664 3.03243L11.1368 2.79078ZM11.8796 3.09846C11.5915 3.27167 11.218 3.11696 11.1368 2.79078L10.1664 3.03243C10.4101 4.01097 11.5306 4.47511 12.3949 3.95549L11.8796 3.09846ZM12.1318 2.89887C11.9483 3.04902 11.902 3.08501 11.8796 3.09846L12.3949 3.95549C12.4965 3.89441 12.6163 3.79449 12.765 3.67283L12.1318 2.89887ZM12.3443 2.73436C12.2777 2.77872 12.2108 2.83422 12.1318 2.89887L12.765 3.67283C12.8619 3.59355 12.883 3.57709 12.8984 3.56684L12.3443 2.73436ZM14.1266 2.82326C13.6167 2.40501 12.8934 2.36894 12.3443 2.73436L12.8984 3.56684C13.0814 3.44503 13.3225 3.45705 13.4925 3.59647L14.1266 2.82326ZM14.3218 3.0081C14.2496 2.93591 14.1885 2.87402 14.1266 2.82326L13.4925 3.59647C13.5068 3.60821 13.5261 3.62668 13.6147 3.7152L14.3218 3.0081ZM14.9919 3.6782L14.3218 3.0081L13.6147 3.7152L14.2848 4.3853L14.9919 3.6782ZM15.1767 3.87333C15.1259 3.81142 15.0641 3.75039 14.9919 3.6782L14.2848 4.3853C14.3733 4.47383 14.3918 4.49316 14.4035 4.50748L15.1767 3.87333ZM15.2656 5.65564C15.631 5.1066 15.595 4.38329 15.1767 3.87333L14.4035 4.50747C14.5429 4.67746 14.5549 4.91856 14.4331 5.10158L15.2656 5.65564ZM15.1011 5.86816C15.1658 5.78916 15.2213 5.72228 15.2656 5.65564L14.4331 5.10158C14.4229 5.11698 14.4064 5.13805 14.3272 5.23491L15.1011 5.86816ZM15.1073 5.86049L15.1073 5.86045L14.321 5.24263L14.321 5.24267L15.1073 5.86049ZM14.9015 6.12038C14.9149 6.098 14.9509 6.05173 15.1011 5.8682L14.3271 5.23496C14.2055 5.38367 14.1055 5.50351 14.0445 5.60511L14.9015 6.12038ZM15.2092 6.86319C14.883 6.78196 14.7283 6.40846 14.9015 6.12038L14.0445 5.60511C13.5249 6.46936 13.989 7.58986 14.9675 7.83355L15.2092 6.86319ZM15.5286 6.90037C15.2927 6.87678 15.2345 6.8695 15.2092 6.86319L14.9675 7.83355C15.0825 7.8622 15.2379 7.87629 15.4291 7.89541L15.5286 6.90037ZM15.5287 6.90037L15.5286 6.90037L15.4291 7.89541L15.4291 7.89541L15.5287 6.90037ZM15.7953 6.93435C15.7168 6.91858 15.6303 6.91053 15.5287 6.90037L15.4291 7.89541C15.5537 7.90787 15.5803 7.91113 15.5984 7.91477L15.7953 6.93435ZM16.9927 8.25747C16.9279 7.60115 16.4419 7.06419 15.7953 6.93435L15.5984 7.91477C15.814 7.95806 15.976 8.13704 15.9976 8.35582L16.9927 8.25747ZM17 8.52618C17 8.42408 17.0006 8.33715 16.9927 8.25747L15.9976 8.35581C15.9994 8.37424 16 8.40097 16 8.52618H17ZM17 9.47391V8.52618H16V9.47391H17ZM16.9927 9.74242C17.0006 9.6628 17 9.57594 17 9.47391H16C16 9.59903 15.9994 9.62573 15.9976 9.64414L16.9927 9.74242ZM15.7952 11.0657C16.4419 10.9359 16.9279 10.3988 16.9927 9.74242L15.9976 9.64415C15.976 9.86295 15.814 10.042 15.5984 10.0852L15.7952 11.0657ZM15.5288 11.0996C15.6303 11.0895 15.7168 11.0814 15.7952 11.0657L15.5984 10.0852C15.5803 10.0889 15.5537 10.0921 15.4292 10.1046L15.5288 11.0996ZM15.5287 11.0996L15.5288 11.0996L15.4292 10.1046L15.4292 10.1046L15.5287 11.0996ZM15.5287 11.0996L15.5287 11.0996L15.4292 10.1046L15.4292 10.1046L15.5287 11.0996ZM15.2095 11.1368C15.2348 11.1305 15.293 11.1232 15.5287 11.0996L15.4292 10.1046C15.2382 10.1237 15.0829 10.1378 14.968 10.1664L15.2095 11.1368ZM14.9018 11.8797C14.7285 11.5915 14.8833 11.218 15.2095 11.1368L14.968 10.1664C13.9893 10.41 13.525 11.5307 14.0449 12.3951L14.9018 11.8797ZM15.1012 12.1316C14.9512 11.9482 14.9153 11.902 14.9018 11.8797L14.0449 12.3951C14.1059 12.4965 14.2057 12.6163 14.3273 12.7648L15.1012 12.1316ZM15.2656 12.3439C15.2212 12.2773 15.1658 12.2105 15.1012 12.1316L14.3273 12.7648C14.4065 12.8616 14.4229 12.8827 14.4331 12.898L15.2656 12.3439ZM15.1767 14.1265C15.595 13.6165 15.6311 12.893 15.2656 12.3439L14.4331 12.898C14.555 13.0811 14.543 13.3222 14.4035 13.4922L15.1767 14.1265ZM14.9921 14.3213C15.0641 14.2492 15.1259 14.1883 15.1767 14.1265L14.4035 13.4922C14.3918 13.5065 14.3733 13.5258 14.2849 13.6142L14.9921 14.3213ZM14.992 14.3214L14.992 14.3213L14.2849 13.6142L14.2849 13.6143L14.992 14.3214ZM14.3218 14.9916L14.992 14.3214L14.2849 13.6143L13.6147 14.2845L14.3218 14.9916ZM14.1267 15.1764C14.1886 15.1256 14.2496 15.0638 14.3218 14.9916L13.6147 14.2845C13.5262 14.373 13.5068 14.3915 13.4925 14.4032L14.1267 15.1764ZM12.3444 15.2653C12.8934 15.6307 13.6167 15.5947 14.1267 15.1764L13.4925 14.4032C13.3225 14.5426 13.0814 14.5546 12.8984 14.4328L12.3444 15.2653ZM12.1318 15.1008C12.2108 15.1654 12.2777 15.221 12.3444 15.2653L12.8984 14.4328C12.883 14.4226 12.862 14.4061 12.7651 14.3268L12.1318 15.1008ZM12.1414 15.1085L12.1415 15.1085L12.7554 14.3191L12.7554 14.3191L12.1414 15.1085ZM11.8797 14.9012C11.902 14.9147 11.9483 14.9506 12.1318 15.1008L12.765 14.3268C12.6164 14.2052 12.4965 14.1053 12.3949 14.0442L11.8797 14.9012ZM11.1368 15.2089C11.2181 14.8827 11.5916 14.728 11.8797 14.9012L12.3949 14.0442C11.5307 13.5246 10.4102 13.9887 10.1665 14.9672L11.1368 15.2089ZM11.0996 15.5285C11.1232 15.2924 11.1305 15.2342 11.1368 15.2089L10.1665 14.9672C10.1378 15.0823 10.1237 15.2377 10.1046 15.429L11.0996 15.5285ZM11.0656 15.7954C11.0814 15.7169 11.0895 15.6302 11.0996 15.5285L10.1046 15.429C10.0921 15.5537 10.0889 15.5803 10.0852 15.5985L11.0656 15.7954ZM9.74265 16.9927C10.3989 16.9278 10.9358 16.4419 11.0656 15.7954L10.0852 15.5985C10.0419 15.814 9.86296 15.9759 9.64422 15.9976L9.74265 16.9927ZM9.47372 17C9.57591 17 9.6629 17.0006 9.74264 16.9927L9.64423 15.9976C9.62578 15.9994 9.59903 16 9.47372 16V17ZM8.52618 17H9.47372V16H8.52618V17ZM8.25747 16.9927C8.33715 17.0006 8.42407 17 8.52618 17V16C8.40097 16 8.37424 15.9994 8.35581 15.9976L8.25747 16.9927ZM6.93434 15.7953C7.06419 16.4419 7.60115 16.9279 8.25747 16.9927L8.35581 15.9976C8.13704 15.976 7.95805 15.814 7.91477 15.5984L6.93434 15.7953ZM6.90037 15.5287C6.91053 15.6303 6.91858 15.7168 6.93434 15.7953L7.91477 15.5984C7.91113 15.5803 7.90787 15.5537 7.89541 15.4292L6.90037 15.5287ZM6.86319 15.2092C6.8695 15.2345 6.87677 15.2927 6.90037 15.5287L7.89541 15.4292C7.87629 15.238 7.8622 15.0825 7.83355 14.9675L6.86319 15.2092ZM6.12038 14.9015C6.40846 14.7283 6.78196 14.883 6.86319 15.2092L7.83355 14.9675C7.58985 13.989 6.46936 13.5249 5.60512 14.0445L6.12038 14.9015ZM5.86817 15.1011C6.05172 14.9509 6.098 14.9149 6.12039 14.9015L5.60512 14.0445C5.50351 14.1055 5.38366 14.2055 5.23494 14.3272L5.86817 15.1011ZM5.86938 15.1001L5.86941 15.1001L5.2337 14.3282L5.23368 14.3282L5.86938 15.1001ZM5.65558 15.2657C5.72224 15.2213 5.78914 15.1658 5.86815 15.1011L5.23491 14.3272C5.13801 14.4065 5.11695 14.4229 5.10154 14.4332L5.65558 15.2657ZM3.87331 15.1768C4.38326 15.595 5.10655 15.6311 5.65559 15.2657L5.10154 14.4332C4.91853 14.555 4.67743 14.543 4.50744 14.4035L3.87331 15.1768ZM3.67817 14.9919C3.75036 15.0641 3.8114 15.126 3.87331 15.1768L4.50745 14.4035C4.49313 14.3918 4.4738 14.3733 4.38527 14.2848L3.67817 14.9919ZM3.67445 14.9882L3.67447 14.9882L4.38898 14.2885L4.38896 14.2885L3.67445 14.9882ZM3.00807 14.3218L3.67815 14.9919L4.38526 14.2848L3.71518 13.6147L3.00807 14.3218ZM3.02527 14.3382L3.02529 14.3382L3.69796 13.5983L3.69795 13.5983L3.02527 14.3382ZM2.82321 14.1267C2.87398 14.1886 2.93587 14.2496 3.00805 14.3218L3.71517 13.6147C3.62664 13.5262 3.60817 13.5068 3.59643 13.4925L2.82321 14.1267ZM2.73432 12.3444C2.36891 12.8934 2.40498 13.6167 2.82321 14.1267L3.59643 13.4925C3.45702 13.3225 3.44499 13.0814 3.5668 12.8984L2.73432 12.3444ZM2.89883 12.1318C2.83418 12.2108 2.77868 12.2777 2.73432 12.3444L3.5668 12.8984C3.57705 12.883 3.59351 12.862 3.67278 12.7651L2.89883 12.1318ZM2.89236 12.1399L2.89233 12.1399L3.67927 12.757L3.6793 12.7569L2.89236 12.1399ZM3.09846 11.8796C3.085 11.902 3.04901 11.9483 2.89885 12.1318L3.6728 12.765C3.79448 12.6163 3.8944 12.4965 3.95548 12.3949L3.09846 11.8796ZM2.79077 11.1368C3.11695 11.218 3.27166 11.5915 3.09846 11.8796L3.95548 12.3949C4.4751 11.5306 4.01097 10.4101 3.03243 10.1664L2.79077 11.1368ZM2.47132 11.0996C2.70727 11.1232 2.76544 11.1305 2.79077 11.1368L3.03243 10.1664C2.9174 10.1378 2.762 10.1237 2.57082 10.1046L2.47132 11.0996ZM2.47774 11.1002L2.47776 11.1002L2.56439 10.104L2.56437 10.104L2.47774 11.1002ZM2.2047 11.0657C2.28318 11.0814 2.36973 11.0895 2.4713 11.0996L2.57081 10.1046C2.44624 10.0921 2.41971 10.0889 2.40156 10.0852L2.2047 11.0657ZM1.00727 9.74251C1.07212 10.3988 1.55807 10.9358 2.20469 11.0657L2.40156 10.0852C2.18602 10.0419 2.02404 9.86296 2.00242 9.64418L1.00727 9.74251ZM0.999996 9.47383C0.999996 9.57593 0.999393 9.66284 1.00727 9.74251L2.00242 9.64418C2.0006 9.62576 2 9.59903 2 9.47383H0.999996ZM0.999996 8.52626V9.47383H2V8.52626H0.999996ZM1.00728 8.25737C0.999393 8.33711 0.999996 8.42409 0.999996 8.52626H2C2 8.40097 2.0006 8.37422 2.00242 8.35578L1.00728 8.25737ZM2.20458 6.93436C1.55805 7.06424 1.07217 7.60113 1.00728 8.25737L2.00242 8.35578C2.02406 8.13703 2.18602 7.95807 2.40153 7.91478L2.20458 6.93436ZM2.47141 6.90036C2.36975 6.91053 2.28314 6.91859 2.20458 6.93437L2.40153 7.91478C2.41969 7.91113 2.44625 7.90787 2.57091 7.8954L2.47141 6.90036ZM2.47377 6.90013L2.47376 6.90014L2.56857 7.89563L2.56858 7.89563L2.47377 6.90013ZM2.79111 6.86316C2.76575 6.86947 2.70754 6.87675 2.47143 6.90036L2.57093 7.8954C2.76225 7.87627 2.91776 7.86217 3.03287 7.83349L2.79111 6.86316ZM3.09877 6.1204C3.27192 6.40846 3.11723 6.7819 2.79111 6.86316L3.03287 7.83349C4.01125 7.58973 4.4753 6.46941 3.95585 5.60522L3.09877 6.1204ZM2.89898 5.86798C3.04928 6.05168 3.08531 6.09801 3.09877 6.1204L3.95585 5.60522C3.89473 5.50354 3.79472 5.38359 3.67294 5.23475L2.89898 5.86798ZM2.9324 5.90492L2.9324 5.90492L3.63951 5.19781L3.63951 5.19781L2.9324 5.90492ZM2.73427 5.65516C2.77867 5.72189 2.83424 5.78886 2.89898 5.86798L3.67294 5.23474C3.59355 5.13772 3.57707 5.11662 3.5668 5.10119L2.73427 5.65516ZM2.82315 3.87312C2.40504 4.38302 2.36898 5.10618 2.73427 5.65516L3.5668 5.10119C3.44504 4.9182 3.45706 4.67715 3.59643 4.50718L2.82315 3.87312ZM3.0082 3.67776C2.93592 3.75004 2.87397 3.81114 2.82315 3.87312L3.59643 4.50718C3.60818 4.49284 3.62668 4.4735 3.7153 4.38487L3.0082 3.67776ZM3.67819 3.00777L3.0082 3.67776L3.7153 4.38487L4.38529 3.71488L3.67819 3.00777ZM3.87334 2.8229C3.81143 2.87368 3.75039 2.93557 3.67819 3.00777L4.38529 3.71488C4.47383 3.62634 4.49316 3.60786 4.50748 3.59612L3.87334 2.8229ZM5.65562 2.73401C5.10659 2.3686 4.38329 2.40468 3.87334 2.8229L4.50748 3.59612C4.67746 3.45671 4.91856 3.44469 5.10157 3.56649L5.65562 2.73401ZM5.86826 2.89859C5.7892 2.8339 5.72228 2.77837 5.65562 2.73401L5.10157 3.56649C5.11698 3.57675 5.13807 3.59322 5.23502 3.67255L5.86826 2.89859ZM5.86826 2.89859L5.86826 2.89859L5.23502 3.67255L5.23503 3.67255L5.86826 2.89859ZM6.12036 3.09814C6.098 3.08469 6.05173 3.0487 5.86826 2.89859L5.23503 3.67255C5.38369 3.79418 5.50348 3.89406 5.60499 3.95511L6.12036 3.09814ZM6.86324 2.79043C6.78203 3.11666 6.40846 3.2714 6.12036 3.09814L5.60499 3.95511C6.4693 4.47489 7.59001 4.01068 7.83363 3.03197L6.86324 2.79043ZM6.90038 2.47123C6.87681 2.70699 6.86954 2.76511 6.86324 2.79043L7.83363 3.03197C7.86224 2.91703 7.87632 2.76176 7.89542 2.57073L6.90038 2.47123ZM6.93432 2.20481C6.91858 2.28324 6.91053 2.36972 6.90038 2.47123L7.89542 2.57073C7.90787 2.44626 7.91112 2.41974 7.91476 2.4016L6.93432 2.20481ZM8.2576 1.00726C7.60118 1.07207 7.06412 1.5581 6.93432 2.20481L7.91476 2.4016C7.95803 2.18603 8.13705 2.02402 8.35586 2.00242L8.2576 1.00726ZM8.52607 1C8.42406 1 8.33721 0.999398 8.2576 1.00726L8.35586 2.00242C8.37427 2.0006 8.40097 2 8.52607 2V1ZM9.47383 1H8.52607V2H9.47383V1ZM9.74251 1.00727C9.66284 0.999397 9.57592 1 9.47383 1V2C9.59903 2 9.62575 2.0006 9.64418 2.00242L9.74251 1.00727ZM11.0657 2.2047C10.9358 1.55808 10.3988 1.07213 9.74251 1.00727L9.64418 2.00242C9.86295 2.02404 10.0419 2.18603 10.0852 2.40157L11.0657 2.2047ZM11.0996 2.47129C11.0895 2.36972 11.0814 2.28318 11.0657 2.2047L10.0852 2.40157C10.0889 2.41971 10.0921 2.44625 10.1046 2.5708L11.0996 2.47129ZM11.5 9C11.5 10.3807 10.3807 11.5 9 11.5V12.5C10.933 12.5 12.5 10.933 12.5 9H11.5ZM9 6.5C10.3807 6.5 11.5 7.61929 11.5 9H12.5C12.5 7.067 10.933 5.5 9 5.5V6.5ZM6.5 9C6.5 7.61929 7.61929 6.5 9 6.5V5.5C7.067 5.5 5.5 7.067 5.5 9H6.5ZM9 11.5C7.61929 11.5 6.5 10.3807 6.5 9H5.5C5.5 10.933 7.067 12.5 9 12.5V11.5Z" fill="#909995"/>
</g>
</svg>
