
<svg width="21" height="20" viewBox="0 0 21 20" fill="none" xmlns="http://www.w3.org/2000/svg">
<path d="M19.3 10.2083C19.3 9.55825 19.2417 8.93325 19.1333 8.33325H10.5V11.8791H15.4333C15.2208 13.0249 14.575 13.9958 13.6042 14.6458V16.9458H16.5667C18.3 15.3499 19.3 12.9999 19.3 10.2083Z" fill="#4285F4"/>
<path d="M10.5003 19.1667C12.9753 19.1667 15.0503 18.3459 16.5669 16.9459L13.6044 14.6459C12.7836 15.1959 11.7336 15.5209 10.5003 15.5209C8.11276 15.5209 6.09193 13.9084 5.37109 11.7417H2.30859V14.1167C3.81693 17.1125 6.91693 19.1667 10.5003 19.1667Z" fill="#34A853"/>
<path d="M5.37051 11.7416C5.18718 11.1916 5.08301 10.6041 5.08301 9.99997C5.08301 9.3958 5.18718 8.8083 5.37051 8.2583V5.8833H2.30801C1.66634 7.16068 1.33244 8.57048 1.33301 9.99997C1.33301 11.4791 1.68718 12.8791 2.30801 14.1166L5.37051 11.7416Z" fill="#FBBC05"/>
<path d="M10.5003 4.47909C11.8461 4.47909 13.0544 4.94159 14.0044 5.84992L16.6336 3.22075C15.0461 1.74159 12.9711 0.833252 10.5003 0.833252C6.91693 0.833252 3.81693 2.88742 2.30859 5.88325L5.37109 8.25825C6.09193 6.09159 8.11276 4.47909 10.5003 4.47909Z" fill="#EA4335"/>
</svg>
