<svg width="18" height="18" viewBox="0 0 18 18" fill="none" xmlns="http://www.w3.org/2000/svg">
<path d="M12.607 7.834C12.7693 6.74309 11.9409 6.16014 10.807 5.76945L11.1745 4.29536L10.2772 4.07173L9.9186 5.50764C9.68269 5.449 9.44133 5.39309 9.19928 5.33855L9.55996 3.89309L8.66269 3.66809L8.29519 5.14286L6.48428 4.69423L6.24565 5.65355C6.24565 5.65355 6.91178 5.80559 6.89746 5.81514C7.02246 5.82986 7.13658 5.89336 7.21498 5.99181C7.29339 6.09026 7.32973 6.2157 7.3161 6.34082L6.30837 10.3779C6.28235 10.4604 6.22466 10.5292 6.14796 10.5692C6.07127 10.6092 5.98183 10.6171 5.89928 10.5913C5.90815 10.6042 5.24678 10.4283 5.24678 10.4283L4.79883 11.4545L6.60701 11.9113L6.23542 13.4045L7.13269 13.6281L7.50019 12.152C7.74565 12.2201 7.98292 12.2801 8.2161 12.3381L7.84928 13.8067L8.74724 14.0304L9.11883 12.5413C10.6495 12.831 11.8004 12.7145 12.2852 11.3297C12.3844 11.1343 12.4418 10.9203 12.4536 10.7015C12.4654 10.4827 12.4314 10.2638 12.3537 10.0589C12.276 9.85395 12.1565 9.6675 12.0026 9.51145C11.8487 9.35539 11.664 9.23318 11.4602 9.15264C11.7701 9.09027 12.0507 8.9271 12.2581 8.68857C12.4656 8.45004 12.5882 8.14956 12.607 7.834ZM10.5554 10.7106C10.2779 11.8254 8.40087 11.2226 7.79201 11.072L8.28496 9.09468C8.89383 9.24741 10.8452 9.54536 10.5554 10.7106ZM10.8329 7.81832C10.58 8.83218 9.01724 8.31673 8.51065 8.19059L8.95792 6.39809C9.46451 6.52423 11.0968 6.76014 10.8329 7.81832Z" fill="#003091"/>
<path fill-rule="evenodd" clip-rule="evenodd" d="M9.00008 2.33323C5.31818 2.33323 2.33341 5.318 2.33341 8.9999C2.33341 12.6818 5.31818 15.6666 9.00008 15.6666C12.682 15.6666 15.6667 12.6818 15.6667 8.9999C15.6667 5.318 12.682 2.33323 9.00008 2.33323ZM0.666748 8.9999C0.666748 4.39753 4.39771 0.666565 9.00008 0.666565C13.6025 0.666565 17.3334 4.39753 17.3334 8.9999C17.3334 13.6023 13.6025 17.3332 9.00008 17.3332C4.39771 17.3332 0.666748 13.6023 0.666748 8.9999Z" fill="#003091"/>
</svg>
