
<svg width="390" height="24" viewBox="0 0 390 24" fill="none" xmlns="http://www.w3.org/2000/svg">
<rect x="24.25" y="12.25" width="341.5" height="0.5" stroke="black" stroke-opacity="0.12" stroke-width="0.5" stroke-dasharray="4 4"/>
<rect width="36" height="24" transform="translate(177)" fill="white"/>
<path d="M189.704 16.084C188.928 16.084 188.212 15.904 187.556 15.544C186.908 15.176 186.392 14.668 186.008 14.02C185.632 13.364 185.444 12.628 185.444 11.812C185.444 10.996 185.632 10.264 186.008 9.616C186.392 8.968 186.908 8.464 187.556 8.104C188.212 7.736 188.928 7.552 189.704 7.552C190.488 7.552 191.204 7.736 191.852 8.104C192.508 8.464 193.024 8.968 193.4 9.616C193.776 10.264 193.964 10.996 193.964 11.812C193.964 12.628 193.776 13.364 193.4 14.02C193.024 14.668 192.508 15.176 191.852 15.544C191.204 15.904 190.488 16.084 189.704 16.084ZM189.704 14.896C190.256 14.896 190.748 14.772 191.18 14.524C191.612 14.268 191.948 13.908 192.188 13.444C192.436 12.972 192.56 12.428 192.56 11.812C192.56 11.196 192.436 10.656 192.188 10.192C191.948 9.728 191.612 9.372 191.18 9.124C190.748 8.876 190.256 8.752 189.704 8.752C189.152 8.752 188.66 8.876 188.228 9.124C187.796 9.372 187.456 9.728 187.208 10.192C186.968 10.656 186.848 11.196 186.848 11.812C186.848 12.428 186.968 12.972 187.208 13.444C187.456 13.908 187.796 14.268 188.228 14.524C188.66 14.772 189.152 14.896 189.704 14.896ZM199.642 16L197.722 12.664H196.678V16H195.31V7.66H198.19C198.83 7.66 199.37 7.772 199.81 7.996C200.258 8.22 200.59 8.52 200.806 8.896C201.03 9.272 201.142 9.692 201.142 10.156C201.142 10.7 200.982 11.196 200.662 11.644C200.35 12.084 199.866 12.384 199.21 12.544L201.274 16H199.642ZM196.678 11.572H198.19C198.702 11.572 199.086 11.444 199.342 11.188C199.606 10.932 199.738 10.588 199.738 10.156C199.738 9.724 199.61 9.388 199.354 9.148C199.098 8.9 198.71 8.776 198.19 8.776H196.678V11.572Z" fill="#737A77"/>
</svg>
