<svg width="24" height="24" viewBox="0 0 24 24" fill="none" xmlns="http://www.w3.org/2000/svg">
<path d="M16.9693 5.11587V3.30415C16.9693 3.14712 16.7888 3.0604 16.6669 3.15649L6.1013 11.4088C6.01153 11.4787 5.9389 11.568 5.88893 11.6702C5.83896 11.7724 5.81299 11.8846 5.81299 11.9983C5.81299 12.112 5.83896 12.2242 5.88893 12.3264C5.9389 12.4285 6.01153 12.5179 6.1013 12.5877L16.6669 20.8401C16.7911 20.9362 16.9693 20.8495 16.9693 20.6924V18.8807C16.9693 18.7659 16.9154 18.6557 16.8263 18.5854L8.3888 11.9995L16.8263 5.41118C16.9154 5.34087 16.9693 5.23071 16.9693 5.11587Z" fill="#333333"/>
</svg>
