<svg width="60" height="13" viewBox="0 0 60 13" fill="none" xmlns="http://www.w3.org/2000/svg">
<path d="M6.44 6.272C7.06933 6.38933 7.58667 6.704 7.992 7.216C8.39733 7.728 8.6 8.31467 8.6 8.976C8.6 9.57333 8.45067 10.1013 8.152 10.56C7.864 11.008 7.44267 11.36 6.888 11.616C6.33333 11.872 5.67733 12 4.92 12H0.104V0.832H4.712C5.46933 0.832 6.12 0.954666 6.664 1.2C7.21867 1.44533 7.63467 1.78667 7.912 2.224C8.2 2.66133 8.344 3.15733 8.344 3.712C8.344 4.36267 8.168 4.90667 7.816 5.344C7.47467 5.78133 7.016 6.09067 6.44 6.272ZM2.344 5.44H4.392C4.92533 5.44 5.336 5.32267 5.624 5.088C5.912 4.84267 6.056 4.496 6.056 4.048C6.056 3.6 5.912 3.25333 5.624 3.008C5.336 2.76267 4.92533 2.64 4.392 2.64H2.344V5.44ZM4.6 10.176C5.144 10.176 5.56533 10.048 5.864 9.792C6.17333 9.536 6.328 9.17333 6.328 8.704C6.328 8.224 6.168 7.85067 5.848 7.584C5.528 7.30667 5.096 7.168 4.552 7.168H2.344V10.176H4.6ZM9.80925 7.536C9.80925 6.64 9.98525 5.84533 10.3372 5.152C10.6999 4.45867 11.1853 3.92533 11.7933 3.552C12.4119 3.17867 13.0999 2.992 13.8573 2.992C14.5186 2.992 15.0946 3.12533 15.5853 3.392C16.0866 3.65867 16.4866 3.99467 16.7853 4.4V3.136H19.0413V12H16.7853V10.704C16.4973 11.12 16.0973 11.4667 15.5853 11.744C15.0839 12.0107 14.5026 12.144 13.8413 12.144C13.0946 12.144 12.4119 11.952 11.7933 11.568C11.1853 11.184 10.6999 10.6453 10.3372 9.952C9.98525 9.248 9.80925 8.44267 9.80925 7.536ZM16.7853 7.568C16.7853 7.024 16.6786 6.56 16.4653 6.176C16.2519 5.78133 15.9639 5.48267 15.6013 5.28C15.2386 5.06667 14.8493 4.96 14.4333 4.96C14.0173 4.96 13.6333 5.06133 13.2812 5.264C12.9293 5.46667 12.6413 5.76533 12.4173 6.16C12.2039 6.544 12.0973 7.00267 12.0973 7.536C12.0973 8.06933 12.2039 8.53867 12.4173 8.944C12.6413 9.33867 12.9293 9.64267 13.2812 9.856C13.6439 10.0693 14.0279 10.176 14.4333 10.176C14.8493 10.176 15.2386 10.0747 15.6013 9.872C15.9639 9.65867 16.2519 9.36 16.4653 8.976C16.6786 8.58133 16.7853 8.112 16.7853 7.568ZM23.469 4.512C23.757 4.04267 24.1303 3.67467 24.589 3.408C25.0583 3.14133 25.5917 3.008 26.189 3.008V5.36H25.597C24.893 5.36 24.3597 5.52533 23.997 5.856C23.645 6.18667 23.469 6.76267 23.469 7.584V12H21.229V3.136H23.469V4.512ZM31.6338 12.144C30.7804 12.144 30.0124 11.9573 29.3298 11.584C28.6471 11.2 28.1084 10.6613 27.7138 9.968C27.3298 9.27467 27.1378 8.47467 27.1378 7.568C27.1378 6.66133 27.3351 5.86133 27.7298 5.168C28.1351 4.47467 28.6844 3.94133 29.3778 3.568C30.0711 3.184 30.8444 2.992 31.6978 2.992C32.5511 2.992 33.3244 3.184 34.0178 3.568C34.7111 3.94133 35.2551 4.47467 35.6498 5.168C36.0551 5.86133 36.2578 6.66133 36.2578 7.568C36.2578 8.47467 36.0498 9.27467 35.6337 9.968C35.2284 10.6613 34.6738 11.2 33.9698 11.584C33.2764 11.9573 32.4978 12.144 31.6338 12.144ZM31.6338 10.192C32.0391 10.192 32.4178 10.096 32.7698 9.904C33.1324 9.70133 33.4204 9.40267 33.6338 9.008C33.8471 8.61333 33.9538 8.13333 33.9538 7.568C33.9538 6.72533 33.7298 6.08 33.2818 5.632C32.8444 5.17333 32.3058 4.944 31.6658 4.944C31.0258 4.944 30.4871 5.17333 30.0498 5.632C29.6231 6.08 29.4098 6.72533 29.4098 7.568C29.4098 8.41067 29.6178 9.06133 30.0338 9.52C30.4604 9.968 30.9938 10.192 31.6338 10.192ZM41.2929 12.144C40.5675 12.144 39.9169 12.016 39.3409 11.76C38.7649 11.4933 38.3062 11.136 37.9649 10.688C37.6342 10.24 37.4529 9.744 37.4209 9.2H39.6769C39.7195 9.54133 39.8849 9.824 40.1729 10.048C40.4715 10.272 40.8395 10.384 41.2769 10.384C41.7035 10.384 42.0342 10.2987 42.2689 10.128C42.5142 9.95733 42.6369 9.73867 42.6369 9.472C42.6369 9.184 42.4875 8.97067 42.1889 8.832C41.9009 8.68267 41.4369 8.52267 40.7969 8.352C40.1355 8.192 39.5915 8.02667 39.1649 7.856C38.7489 7.68533 38.3862 7.424 38.0769 7.072C37.7782 6.72 37.6289 6.24533 37.6289 5.648C37.6289 5.15733 37.7675 4.70933 38.0449 4.304C38.3329 3.89867 38.7382 3.57867 39.2609 3.344C39.7942 3.10933 40.4182 2.992 41.1329 2.992C42.1889 2.992 43.0315 3.25867 43.6609 3.792C44.2902 4.31467 44.6369 5.024 44.7009 5.92H42.5569C42.5249 5.568 42.3755 5.29067 42.1089 5.088C41.8529 4.87467 41.5062 4.768 41.0689 4.768C40.6635 4.768 40.3489 4.84267 40.1249 4.992C39.9115 5.14133 39.8049 5.34933 39.8049 5.616C39.8049 5.91467 39.9542 6.144 40.2529 6.304C40.5515 6.45333 41.0155 6.608 41.6449 6.768C42.2849 6.928 42.8129 7.09333 43.2289 7.264C43.6449 7.43467 44.0022 7.70133 44.3009 8.064C44.6102 8.416 44.7702 8.88533 44.7809 9.472C44.7809 9.984 44.6369 10.4427 44.3489 10.848C44.0715 11.2533 43.6662 11.5733 43.1329 11.808C42.6102 12.032 41.9969 12.144 41.2929 12.144ZM46.0436 7.536C46.0436 6.64 46.2196 5.84533 46.5716 5.152C46.9343 4.45867 47.4196 3.92533 48.0276 3.552C48.6463 3.17867 49.3343 2.992 50.0916 2.992C50.753 2.992 51.329 3.12533 51.8196 3.392C52.321 3.65867 52.721 3.99467 53.0196 4.4V3.136H55.2756V12H53.0196V10.704C52.7316 11.12 52.3316 11.4667 51.8196 11.744C51.3183 12.0107 50.737 12.144 50.0756 12.144C49.329 12.144 48.6463 11.952 48.0276 11.568C47.4196 11.184 46.9343 10.6453 46.5716 9.952C46.2196 9.248 46.0436 8.44267 46.0436 7.536ZM53.0196 7.568C53.0196 7.024 52.913 6.56 52.6996 6.176C52.4863 5.78133 52.1983 5.48267 51.8356 5.28C51.473 5.06667 51.0836 4.96 50.6676 4.96C50.2516 4.96 49.8676 5.06133 49.5156 5.264C49.1636 5.46667 48.8756 5.76533 48.6516 6.16C48.4383 6.544 48.3316 7.00267 48.3316 7.536C48.3316 8.06933 48.4383 8.53867 48.6516 8.944C48.8756 9.33867 49.1636 9.64267 49.5156 9.856C49.8783 10.0693 50.2623 10.176 50.6676 10.176C51.0836 10.176 51.473 10.0747 51.8356 9.872C52.1983 9.65867 52.4863 9.36 52.6996 8.976C52.913 8.58133 53.0196 8.112 53.0196 7.568Z" fill="#1D1F1E"/>
<path d="M58.4554 12.112C58.05 12.112 57.714 11.9893 57.4474 11.744C57.1914 11.488 57.0634 11.1733 57.0634 10.8C57.0634 10.4267 57.1914 10.1173 57.4474 9.872C57.714 9.616 58.05 9.488 58.4554 9.488C58.85 9.488 59.1754 9.616 59.4314 9.872C59.6874 10.1173 59.8154 10.4267 59.8154 10.8C59.8154 11.1733 59.6874 11.488 59.4314 11.744C59.1754 11.9893 58.85 12.112 58.4554 12.112Z" fill="#40B586"/>
</svg>
