<svg width="120" height="120" viewBox="0 0 120 120" fill="none" xmlns="http://www.w3.org/2000/svg">
<path d="M60 120C93.1371 120 120 93.1371 120 60C120 26.8629 93.1371 0 60 0C26.8629 0 0 26.8629 0 60C0 93.1371 26.8629 120 60 120Z" fill="#F4F6F5"/>
<path d="M109.289 49.1877V97.9805C109.289 98.1868 109.289 98.29 109.289 98.4963C109.186 101.281 107.845 103.757 105.885 105.408C104.132 106.955 101.863 107.883 99.3879 107.883H20.9014C19.1481 107.883 17.6011 107.471 16.1572 106.646C15.5384 106.336 14.9195 105.924 14.4039 105.408C13.2694 104.479 12.3411 103.241 11.8255 101.797C11.4129 100.766 11.1035 99.7341 11.1035 98.5994V49.1877C11.1035 49.1877 15.229 45.6804 21.1077 40.8321C27.1927 35.6743 35.2373 29.0723 42.2506 23.1924C46.2729 19.7883 45.8603 20.2009 52.0485 14.9399C56.7927 11.02 63.7028 11.02 68.4471 14.9399C69.6847 15.9715 70.9224 17.1062 72.16 18.1378C74.7384 20.2009 77.5231 22.6766 80.6171 25.1524C86.9084 30.4133 93.8185 36.1901 99.2847 40.7289C104.854 45.371 108.876 48.7751 109.289 49.1877Z" fill="#68CAA3"/>
<path d="M95.7783 26.8015V57.542L80.1016 66.9292L75.4605 69.7144L65.5594 75.5943L60.9183 78.4827L58.9587 79.6174L57.1023 78.4827L52.6674 75.6975L43.2821 69.8176L38.8472 67.0324L24.4082 57.9546V26.8015C24.4082 23.6037 26.9866 20.9216 30.287 20.9216H89.8995C93.1999 20.9216 95.7783 23.6037 95.7783 26.8015Z" fill="white"/>
<path d="M24.5117 50.3211V26.8015C24.5117 23.6037 27.0901 20.9216 30.3905 20.9216H90.003C93.2002 20.9216 95.8818 23.5005 95.8818 26.8015V50.94" stroke="#40B586" stroke-opacity="0.24" stroke-miterlimit="10" stroke-linecap="round" stroke-linejoin="round"/>
<path d="M83.0927 36.4386H39.0537C38.3317 36.4386 37.7129 35.8198 37.7129 34.9947C37.7129 34.1696 38.3317 33.5508 39.0537 33.5508H83.0927C83.8147 33.5508 84.4335 34.1696 84.4335 34.9947C84.4335 35.8198 83.8147 36.4386 83.0927 36.4386Z" fill="#ACE2CC"/>
<path d="M83.0927 45.1017H39.0537C38.3317 45.1017 37.7129 44.4829 37.7129 43.6578C37.7129 42.8327 38.3317 42.2139 39.0537 42.2139H83.0927C83.8147 42.2139 84.4335 42.8327 84.4335 43.6578C84.4335 44.4829 83.8147 45.1017 83.0927 45.1017Z" fill="#ACE2CC"/>
<path d="M65.6631 75.5973L60.9188 78.4851H57.1028L52.668 75.5973H65.6631Z" fill="#CAF6E5"/>
<path d="M109.289 49.1865V98.4951C109.186 101.28 107.845 103.756 105.885 105.407C104.132 106.954 101.863 107.882 99.3879 107.882H20.9014C19.1481 107.882 17.6011 107.47 16.1572 106.644C15.5384 106.335 14.9195 105.922 14.4039 105.407C13.2694 104.478 12.3411 103.24 11.8255 101.796C11.4129 100.765 11.1035 99.733 11.1035 98.5982V98.4951V49.1865L55.0394 76.7292L58.8555 79.1018L60.1962 78.2765L61.4339 77.5544L109.289 49.1865Z" fill="#95DABE"/>
<path d="M105.885 105.407C104.132 106.954 101.863 107.882 99.3879 107.882H20.9014C19.1481 107.882 17.6011 107.47 16.1572 106.644C15.5384 106.335 14.9195 105.922 14.4039 105.407C13.2694 104.478 12.3411 103.24 11.8255 101.796C11.4129 100.765 11.1035 99.733 11.1035 98.5982V98.4951V49.1865L16.2603 52.2812L60.1962 78.3797L61.4339 79.1018L61.537 79.2049L100.935 102.518L105.885 105.407Z" fill="#EDFCF6"/>
<path d="M17.4971 53.0055L53.2852 74.2556" stroke="#40B586" stroke-opacity="0.24" stroke-miterlimit="10" stroke-linecap="round" stroke-linejoin="round"/>
<path d="M109.288 49.1865V98.4951C109.185 101.28 107.845 103.756 105.885 105.407C104.132 106.954 101.863 107.882 99.3874 107.882H20.9009C19.1476 107.882 17.6005 107.47 16.1566 106.644C15.5378 106.335 14.919 105.922 14.4033 105.407L19.457 102.415L58.8549 79.1018L60.1957 78.2765L61.4333 77.5544L104.235 52.178L109.288 49.1865Z" fill="#D3F8E9"/>
<path d="M104.132 52.2808L61.3309 77.554L60.0933 78.2761L58.7525 79.1013L22.0361 100.867" stroke="#40B586" stroke-opacity="0.24" stroke-miterlimit="10" stroke-linecap="round" stroke-linejoin="round"/>
<path d="M97.4281 83.64H71.3347C70.7159 83.64 70.2002 83.1243 70.2002 82.5055C70.2002 81.8866 70.7159 81.371 71.3347 81.371H97.4281C98.0469 81.371 98.5626 81.8866 98.5626 82.5055C98.5626 83.1243 98.0469 83.64 97.4281 83.64Z" fill="#68CAA3"/>
<path d="M97.4281 91.1727H71.3347C70.7159 91.1727 70.2002 90.657 70.2002 90.0382C70.2002 89.4194 70.7159 88.9037 71.3347 88.9037H97.4281C98.0469 88.9037 98.5626 89.4194 98.5626 90.0382C98.5626 90.657 98.0469 91.1727 97.4281 91.1727Z" fill="#68CAA3"/>
<path d="M11 61.0514V49.1885C14.9192 45.8875 18.2195 43.1023 21.0042 40.8329" stroke="#40B586" stroke-opacity="0.24" stroke-miterlimit="10" stroke-linecap="round" stroke-linejoin="round"/>
<path d="M97.9436 39.6987C104.235 44.9597 109.082 48.9828 109.289 49.1891C109.289 49.4985 109.289 98.1882 109.289 98.4976C108.979 103.759 104.647 107.885 99.3875 107.885C14.816 107.885 18.2195 108.813 14.4035 105.409C12.4439 103.655 11.2063 101.283 11 98.6008V71.0582" stroke="#40B586" stroke-opacity="0.24" stroke-miterlimit="10" stroke-linecap="round" stroke-linejoin="round"/>
<path d="M47.3047 18.8599C48.6455 17.7252 50.1925 16.3841 52.0489 14.9399C56.7932 11.02 63.7033 11.02 68.4476 14.9399C68.8601 15.3526 71.6448 17.622 75.564 20.923" stroke="#40B586" stroke-opacity="0.24" stroke-miterlimit="10" stroke-linecap="round" stroke-linejoin="round"/>
<path d="M64.8067 70.2046C63.3865 71.1541 61.7297 71.7079 59.9152 71.7079C55.0237 71.7079 51 67.6725 51 62.7668C51 57.861 55.0237 53.8256 59.9152 53.8256C64.8067 53.8256 68.8303 57.861 68.8303 62.7668C68.8303 65.8527 67.1735 68.5429 64.8067 70.2046Z" fill="#40B586"/>
<path d="M58.6628 65.7855C58.3472 65.7855 58.1105 65.7064 57.8739 65.469L55.5859 63.1744C55.1914 62.7787 55.1914 62.0666 55.5859 61.671C55.9804 61.2753 56.6904 61.2753 57.0849 61.671L58.5839 63.1744L62.4498 59.2972C62.8443 58.9016 63.5543 58.9016 63.9488 59.2972C64.3433 59.6928 64.3433 60.405 63.9488 60.8006L59.294 65.469C59.294 65.7064 58.9784 65.7855 58.6628 65.7855Z" fill="white"/>
</svg>
