
<svg width="40" height="40" viewBox="0 0 40 40" fill="none" xmlns="http://www.w3.org/2000/svg">
<rect width="40" height="40" rx="20" fill="#F7F7F7"/>
<g clip-path="url(#clip0_204_3131)">
<path d="M14 16.6666L19.63 12.9133C19.7396 12.8402 19.8683 12.8012 20 12.8012C20.1317 12.8012 20.2604 12.8402 20.37 12.9133L26 16.6666V26C26 26.1768 25.9298 26.3464 25.8047 26.4714C25.6797 26.5964 25.5101 26.6666 25.3333 26.6666H14.6667C14.4899 26.6666 14.3203 26.5964 14.1953 26.4714C14.0702 26.3464 14 26.1768 14 26V16.6666ZM15.3333 17.38V25.3333H24.6667V17.38L20 14.2693L15.3333 17.38ZM17.3333 22.6666H22.6667V24H17.3333V22.6666ZM17.3333 20.6666H22.6667V22H17.3333V20.6666ZM20 19.3333C19.6464 19.3333 19.3072 19.1928 19.0572 18.9428C18.8071 18.6927 18.6667 18.3536 18.6667 18C18.6667 17.6464 18.8071 17.3072 19.0572 17.0572C19.3072 16.8071 19.6464 16.6666 20 16.6666C20.3536 16.6666 20.6928 16.8071 20.9428 17.0572C21.1929 17.3072 21.3333 17.6464 21.3333 18C21.3333 18.3536 21.1929 18.6927 20.9428 18.9428C20.6928 19.1928 20.3536 19.3333 20 19.3333Z" fill="#909995"/>
</g>
<defs>
<clipPath id="clip0_204_3131">
<rect width="16" height="16" fill="white" transform="translate(12 12)"/>
</clipPath>
</defs>
</svg>
