
<svg width="40" height="40" viewBox="0 0 40 40" fill="none" xmlns="http://www.w3.org/2000/svg">
<rect width="40" height="40" rx="20" fill="#F7F7F7"/>
<g clip-path="url(#clip0_204_3146)">
<path d="M25.3333 13.3333C25.7013 13.3333 26 13.632 26 14V16.5047L24.6667 17.838V14.6667H15.3333V25.3333H24.6667V23.4947L26 22.1613V26C26 26.368 25.7013 26.6667 25.3333 26.6667H14.6667C14.2987 26.6667 14 26.368 14 26V14C14 13.632 14.2987 13.3333 14.6667 13.3333H25.3333ZM26.5187 17.872L27.4613 18.8147L22.276 24L21.332 23.9987L21.3333 23.0573L26.5187 17.872ZM20.6667 20V21.3333H17.3333V20H20.6667ZM22.6667 17.3333V18.6667H17.3333V17.3333H22.6667Z" fill="#909995"/>
</g>
<defs>
<clipPath id="clip0_204_3146">
<rect width="16" height="16" fill="white" transform="translate(12 12)"/>
</clipPath>
</defs>
</svg>
