<svg width="99" height="98" viewBox="0 0 99 98" fill="none" xmlns="http://www.w3.org/2000/svg">
<path d="M50.5991 95.3466C74.7901 95.3466 94.4021 75.7346 94.4021 51.4571C94.4021 27.1797 74.7037 7.56769 50.5991 7.56769C26.408 7.56769 6.79602 27.1797 6.79602 51.4571C6.79602 75.7346 26.408 95.3466 50.5991 95.3466Z" fill="#F2F7F5" stroke="#CCE0D8" stroke-width="2" stroke-miterlimit="10"/>
<path d="M86.6522 90.1837C88.6086 90.1837 90.1945 88.5978 90.1945 86.6414C90.1945 84.6851 88.6086 83.0992 86.6522 83.0992C84.6959 83.0992 83.11 84.6851 83.11 86.6414C83.11 88.5978 84.6959 90.1837 86.6522 90.1837Z" fill="#F2F7F5"/>
<path d="M95.9284 33.7518C97.2644 33.7518 98.3475 32.6688 98.3475 31.3327C98.3475 29.9967 97.2644 28.9136 95.9284 28.9136C94.5923 28.9136 93.5093 29.9967 93.5093 31.3327C93.5093 32.6688 94.5923 33.7518 95.9284 33.7518Z" fill="#F2F7F5"/>
<path d="M9.45048 22.8052C10.7865 22.8052 11.8696 21.7222 11.8696 20.3861C11.8696 19.0501 10.7865 17.967 9.45048 17.967C8.11444 17.967 7.03137 19.0501 7.03137 20.3861C7.03137 21.7222 8.11444 22.8052 9.45048 22.8052Z" fill="#F2F7F5"/>
<path d="M7.14533 86.6112C9.62654 86.6112 11.638 84.5998 11.638 82.1186C11.638 79.6374 9.62654 77.626 7.14533 77.626C4.66412 77.626 2.65271 79.6374 2.65271 82.1186C2.65271 84.5998 4.66412 86.6112 7.14533 86.6112Z" fill="#F2F7F5"/>
<path d="M50.4558 95.7788C74.6468 95.7788 94.2588 76.1668 94.2588 51.8893C94.2588 27.6119 74.5604 7.99988 50.4558 7.99988C26.2647 7.99988 6.65271 27.6119 6.65271 51.8893C6.65271 76.1668 26.2647 95.7788 50.4558 95.7788Z" stroke="#CCE0D8" stroke-width="2" stroke-miterlimit="10"/>
<path d="M82.1081 36.825L77.8815 51.6178L76.6739 55.7438L66.1076 92.8769C65.3025 95.8959 62.0823 97.6066 59.0634 96.8015L41.1509 91.6693L22.7353 86.3358C19.7163 85.5308 18.0056 82.3106 18.8107 79.2916L32.6978 30.4852L34.8111 23.2397C35.5155 20.8245 37.2263 18.8119 39.4402 17.7049L60.0697 7.84301C63.1893 6.33353 66.9127 7.44048 68.8247 10.3588L81.1017 29.5795C82.41 31.6927 82.8125 34.3092 82.1081 36.825Z" fill="#F2F7F5" stroke="#CCE0D8" stroke-width="2" stroke-miterlimit="10"/>
<path opacity="0.2" d="M77.8815 51.6178C77.8815 51.3159 77.8815 51.1147 77.8815 50.8128L76.4727 28.07C76.2714 24.6485 73.5544 21.8308 70.0323 21.6295L47.1888 20.2207C44.673 20.1201 42.1572 21.0257 40.4465 22.8371L32.6978 30.5858L18.8107 79.3922C18.0056 82.4112 19.7163 85.5308 22.7353 86.4364L41.2516 91.7699L75.3657 57.6557C75.9695 57.0519 76.3721 56.4482 76.7746 55.8444" fill="#AFC0B9"/>
<path d="M29.9805 89.1534L3.31301 62.486C1.09911 60.272 1.09911 56.6493 3.31301 54.4354L44.5721 13.1764C46.3834 11.365 48.7986 10.4593 51.3144 10.5599L74.0572 11.9688C77.4787 12.17 80.2964 14.8871 80.4976 18.4092L81.9065 41.152C82.1077 43.6678 81.1014 46.1836 79.29 47.8943L38.031 89.1534C35.8171 91.3673 32.1944 91.3673 29.9805 89.1534Z" fill="white" stroke="#CCE0D8" stroke-width="2" stroke-miterlimit="10"/>
<path d="M71.2933 30.909C73.9656 28.2367 73.9656 23.904 71.2933 21.2317C68.621 18.5594 64.2883 18.5594 61.616 21.2317C58.9437 23.904 58.9437 28.2367 61.616 30.909C64.2883 33.5813 68.621 33.5813 71.2933 30.909Z" fill="white" stroke="#CCE0D8" stroke-width="2" stroke-miterlimit="10" stroke-linecap="round" stroke-linejoin="round"/>
<path d="M16.5965 59.7689C16.0933 59.7689 15.5902 59.5676 15.1877 59.1651C14.3826 58.36 14.3826 57.1525 15.1877 56.3474L41.3519 30.1831C42.157 29.3781 43.3646 29.3781 44.1696 30.1831C44.9747 30.9882 44.9747 32.1958 44.1696 33.0008L18.106 59.1651C17.7034 59.5676 17.2003 59.7689 16.5965 59.7689Z" fill="#E1EAE6"/>
<path d="M23.6406 66.7126C23.1374 66.7126 22.6342 66.5113 22.2317 66.1088C21.4267 65.3037 21.4267 64.0961 22.2317 63.2911L48.2954 37.2274C49.1004 36.4224 50.308 36.4224 51.1131 37.2274C51.9181 38.0325 51.9181 39.2401 51.1131 40.0451L25.0494 66.1088C24.6469 66.5113 24.1437 66.7126 23.6406 66.7126Z" fill="#E1EAE6"/>
<path d="M33.4019 76.4735C32.8988 76.4735 32.3956 76.2722 31.9931 75.8697C31.188 75.0647 31.188 73.8571 31.9931 73.052L40.6474 64.3977C41.4525 63.5926 42.66 63.5926 43.4651 64.3977C44.2702 65.2027 44.2702 66.4103 43.4651 67.2154L34.8108 75.8697C34.4082 76.2722 33.9051 76.4735 33.4019 76.4735Z" fill="#E1EAE6"/>
<path d="M90.2588 15.7929C90.2588 21.6295 86.8374 26.963 81.4033 29.2775L81.0007 28.2712V27.1643C85.3279 25.051 88.1456 20.6232 88.1456 15.7929C88.1456 8.84928 82.5102 3.11327 75.466 3.11327C68.5224 3.11327 62.7864 8.74865 62.7864 15.7929C62.7864 17.2017 62.9876 18.5099 63.4908 19.8182C64.8996 23.9441 68.3211 27.1643 72.6483 28.1706L72.447 29.1769L71.8432 30.1832C67.1135 28.9757 63.3902 25.5542 61.6794 21.1264C61.0756 19.5163 60.6731 17.7049 60.6731 15.8935C60.7737 7.6417 67.3148 1 75.466 1C83.7178 1 90.2588 7.6417 90.2588 15.7929Z" fill="#CCE0D8" stroke="#CCE0D8" stroke-width="2" stroke-miterlimit="10"/>
</svg>
