
<svg width="40" height="40" viewBox="0 0 40 40" fill="none" xmlns="http://www.w3.org/2000/svg">
<rect width="40" height="40" rx="20" fill="#F7F7F7"/>
<g clip-path="url(#clip0_204_3124)">
<path d="M15.637 22L12.667 24.3333V14C12.667 13.8232 12.7372 13.6536 12.8623 13.5286C12.9873 13.4036 13.1568 13.3333 13.3337 13.3333H23.3337C23.5105 13.3333 23.68 13.4036 23.8051 13.5286C23.9301 13.6536 24.0003 13.8232 24.0003 14V22H15.637ZM15.1757 20.6666H22.667V14.6666H14.0003V21.59L15.1757 20.6666ZM17.3337 23.3333H24.1583L25.3337 24.2566V17.3333H26.0003C26.1771 17.3333 26.3467 17.4036 26.4717 17.5286C26.5968 17.6536 26.667 17.8232 26.667 18V27L23.697 24.6666H18.0003C17.8235 24.6666 17.6539 24.5964 17.5289 24.4714C17.4039 24.3464 17.3337 24.1768 17.3337 24V23.3333Z" fill="#909995"/>
</g>
<defs>
<clipPath id="clip0_204_3124">
<rect width="16" height="16" fill="white" transform="translate(12 12)"/>
</clipPath>
</defs>
</svg>
