
<svg width="40" height="40" viewBox="0 0 40 40" fill="none" xmlns="http://www.w3.org/2000/svg">
<rect width="40" height="40" rx="20" fill="#F7F7F7"/>
<g clip-path="url(#clip0_204_3139)">
<path d="M25.333 14L26.6663 16.6667V25.3333C26.6663 25.5101 26.5961 25.6797 26.4711 25.8047C26.3461 25.9298 26.1765 26 25.9997 26H13.9997C13.8229 26 13.6533 25.9298 13.5283 25.8047C13.4032 25.6797 13.333 25.5101 13.333 25.3333V16.6693L14.6663 14H25.333ZM25.333 18H14.6663V24.6667H25.333V18ZM19.9997 18.6667L22.6663 21.3333H20.6663V24H19.333V21.3333H17.333L19.9997 18.6667ZM24.509 15.3333H15.4903L14.8243 16.6667H25.1757L24.509 15.3333Z" fill="#909995"/>
</g>
<defs>
<clipPath id="clip0_204_3139">
<rect width="16" height="16" fill="white" transform="translate(12 12)"/>
</clipPath>
</defs>
</svg>
