<svg width="52" height="52" viewBox="0 0 52 52" fill="none" xmlns="http://www.w3.org/2000/svg">
<g id="Chat_alt_3_light">
<path id="Union" d="M41.8727 12.5184L41.457 12.7961V12.7961L41.8727 12.5184ZM41.8727 35.1482L41.457 34.8704L41.8727 35.1482ZM39.4816 37.5394L39.2038 37.1236L39.4816 37.5394ZM30.3333 38.997L30.3311 38.497C30.0559 38.4982 29.8333 38.7217 29.8333 38.997H30.3333ZM30.3333 39L30.7805 39.2236C30.8153 39.1541 30.8333 39.0776 30.8333 39H30.3333ZM26.8944 45.8778L27.3416 46.1014H27.3416L26.8944 45.8778ZM21.6667 39H21.1667C21.1667 39.0776 21.1847 39.1541 21.2194 39.2236L21.6667 39ZM21.6667 38.997H22.1667C22.1667 38.7217 21.9441 38.4982 21.6688 38.497L21.6667 38.997ZM12.5184 37.5394L12.2406 37.9551L12.5184 37.5394ZM10.1273 35.1482L9.71152 35.426H9.71152L10.1273 35.1482ZM10.1273 12.5184L9.71152 12.2406V12.2406L10.1273 12.5184ZM12.5184 10.1272L12.2406 9.71149L12.5184 10.1272ZM39.4816 10.1272L39.2038 10.543V10.543L39.4816 10.1272ZM43.8333 23.8333C43.8333 20.8007 43.8339 18.4886 43.6482 16.6627C43.4616 14.8284 43.0828 13.4294 42.2885 12.2406L41.457 12.7961C42.1232 13.7933 42.4748 15.0087 42.6533 16.7639C42.8327 18.5275 42.8333 20.7799 42.8333 23.8333H43.8333ZM42.2885 35.426C43.0828 34.2372 43.4616 32.8382 43.6482 31.0039C43.8339 29.178 43.8333 26.8659 43.8333 23.8333H42.8333C42.8333 26.8867 42.8327 29.1391 42.6533 30.9027C42.4748 32.6579 42.1232 33.8733 41.457 34.8704L42.2885 35.426ZM39.7594 37.9551C40.7603 37.2863 41.6197 36.4269 42.2885 35.426L41.457 34.8704C40.8612 35.7622 40.0955 36.5278 39.2038 37.1236L39.7594 37.9551ZM30.3355 39.497C32.6706 39.4868 34.5116 39.4418 36.013 39.2343C37.5223 39.0257 38.7209 38.649 39.7594 37.9551L39.2038 37.1236C38.3327 37.7057 37.2946 38.0476 35.876 38.2437C34.4494 38.4409 32.671 38.4868 30.3311 38.497L30.3355 39.497ZM30.8333 39V38.997H29.8333V39H30.8333ZM27.3416 46.1014L30.7805 39.2236L29.8861 38.7764L26.4472 45.6542L27.3416 46.1014ZM24.6583 46.1014C25.2111 47.207 26.7888 47.207 27.3416 46.1014L26.4472 45.6542C26.2629 46.0227 25.737 46.0227 25.5528 45.6542L24.6583 46.1014ZM21.2194 39.2236L24.6583 46.1014L25.5528 45.6542L22.1139 38.7764L21.2194 39.2236ZM21.1667 38.997V39H22.1667V38.997H21.1667ZM12.2406 37.9551C13.2791 38.649 14.4776 39.0257 15.987 39.2343C17.4884 39.4418 19.3293 39.4868 21.6645 39.497L21.6688 38.497C19.3289 38.4868 17.5506 38.4409 16.1239 38.2437C14.7053 38.0476 13.6673 37.7057 12.7962 37.1236L12.2406 37.9551ZM9.71152 35.426C10.3803 36.4269 11.2397 37.2863 12.2406 37.9551L12.7962 37.1236C11.9044 36.5278 11.1388 35.7622 10.543 34.8704L9.71152 35.426ZM8.16666 23.8333C8.16666 26.8659 8.16605 29.178 8.3518 31.0039C8.53839 32.8382 8.91718 34.2372 9.71152 35.426L10.543 34.8704C9.87673 33.8733 9.52522 32.6579 9.34666 30.9027C9.16726 29.1391 9.16666 26.8867 9.16666 23.8333H8.16666ZM9.71152 12.2406C8.91718 13.4294 8.53839 14.8284 8.3518 16.6627C8.16605 18.4886 8.16666 20.8007 8.16666 23.8333H9.16666C9.16666 20.7799 9.16726 18.5275 9.34666 16.7639C9.52522 15.0087 9.87673 13.7933 10.543 12.7961L9.71152 12.2406ZM12.2406 9.71149C11.2397 10.3803 10.3803 11.2397 9.71152 12.2406L10.543 12.7961C11.1388 11.9044 11.9044 11.1388 12.7962 10.543L12.2406 9.71149ZM23.8333 8.16663C20.8007 8.16663 18.4886 8.16602 16.6627 8.35177C14.8284 8.53836 13.4294 8.91715 12.2406 9.71149L12.7962 10.543C13.7933 9.8767 15.0087 9.52519 16.7639 9.34663C18.5275 9.16723 20.7799 9.16663 23.8333 9.16663V8.16663ZM28.1667 8.16663H23.8333V9.16663H28.1667V8.16663ZM39.7594 9.71149C38.5706 8.91715 37.1715 8.53836 35.3373 8.35177C33.5113 8.16602 31.1993 8.16663 28.1667 8.16663V9.16663C31.2201 9.16663 33.4725 9.16723 35.236 9.34663C36.9913 9.52519 38.2067 9.8767 39.2038 10.543L39.7594 9.71149ZM42.2885 12.2406C41.6197 11.2397 40.7603 10.3803 39.7594 9.71149L39.2038 10.543C40.0955 11.1388 40.8612 11.9044 41.457 12.7961L42.2885 12.2406Z" fill="white"/>
<circle id="Ellipse 46" cx="34.6667" cy="23.8333" r="2.16667" fill="white"/>
<circle id="Ellipse 47" cx="26" cy="23.8333" r="2.16667" fill="white"/>
<circle id="Ellipse 48" cx="17.3333" cy="23.8333" r="2.16667" fill="white"/>
</g>
</svg>
