<svg width="52" height="52" viewBox="0 0 52 52" fill="none" xmlns="http://www.w3.org/2000/svg">
<g id="Setting_line_light">
<path id="Subtract" d="M30.5134 6.13449H30.1384V6.15319L30.1403 6.1718L30.5134 6.13449ZM30.5134 6.13447H30.8884V6.11577L30.8866 6.09715L30.5134 6.13447ZM30.865 9.64962L30.4918 9.68694V9.68694L30.865 9.64962ZM31.6628 12.3289L31.8063 11.9825V11.9825L31.6628 12.3289ZM34.1215 10.9985L34.359 11.2888L34.1215 10.9985ZM36.8556 8.76154L36.6181 8.47131L36.8556 8.76154ZM38.2391 7.96367L38.2204 8.3382L38.2391 7.96367ZM39.5363 8.89524L39.2711 9.16041L39.5363 8.89524ZM43.1049 12.4638L43.37 12.1986L43.1049 12.4638ZM44.0364 13.761L44.411 13.7423V13.7423L44.0364 13.761ZM43.2386 15.1445L43.5288 15.382L43.2386 15.1445ZM41.0015 17.8787L41.2918 18.1161L41.0015 17.8787ZM39.6711 20.3374L39.3247 20.4809V20.4809L39.6711 20.3374ZM42.3504 21.1352L42.3131 21.5083L42.3504 21.1352ZM45.8657 21.4867L45.903 21.1136L45.8657 21.4867ZM47.4081 21.9008L47.1301 22.1524V22.1524L47.4081 21.9008ZM47.4081 30.0995L47.1301 29.8479V29.8479L47.4081 30.0995ZM45.8657 30.5136L45.903 30.8867L45.8657 30.5136ZM42.3512 30.865L42.3139 30.4919L42.3512 30.865ZM39.672 31.6629L39.3255 31.5194V31.5194L39.672 31.6629ZM41.0023 34.1216L41.2926 33.8841L41.0023 34.1216ZM43.2387 36.8549L43.5289 36.6174L43.2387 36.8549ZM44.0365 38.2383L44.4111 38.257V38.257L44.0365 38.2383ZM38.2392 44.0357L38.2579 44.4102H38.2579L38.2392 44.0357ZM36.8557 43.2378L36.6182 43.5281L36.8557 43.2378ZM34.1216 41.0008L33.8841 41.2911L34.1216 41.0008ZM31.6629 39.6705L31.5194 39.324H31.5194L31.6629 39.6705ZM30.8651 42.3497L30.4919 42.3124L30.8651 42.3497ZM30.5134 45.8658L30.8866 45.9032L30.5134 45.8658ZM30.0994 47.4083L29.8477 47.1302H29.8477L30.0994 47.4083ZM21.9007 47.4083L22.1523 47.1302H22.1523L21.9007 47.4083ZM21.4866 45.8658L21.1134 45.9032L21.4866 45.8658ZM21.1351 42.3506L21.5082 42.3133L21.1351 42.3506ZM20.3372 39.6713L20.4807 39.3249H20.4807L20.3372 39.6713ZM17.8785 41.0017L18.116 41.2919L17.8785 41.0017ZM15.1443 43.2388L14.9068 42.9486L15.1443 43.2388ZM13.7608 44.0367L13.7421 44.4112H13.7421L13.7608 44.0367ZM12.4636 43.1051L12.1984 43.3703H12.1984L12.4636 43.1051ZM8.895 39.5365L9.16016 39.2714H9.16016L8.895 39.5365ZM7.96342 38.2393L8.33796 38.2206L7.96342 38.2393ZM8.7613 36.8558L8.47106 36.6184L8.7613 36.8558ZM10.9984 34.1217L10.7081 33.8842L10.9984 34.1217ZM9.64945 30.8651L9.68677 30.492L9.64945 30.8651ZM6.13434 30.5136L6.17165 30.1405L6.15304 30.1386H6.13434V30.5136ZM6.13432 30.5136L6.097 30.8867L6.11561 30.8886H6.13432V30.5136ZM4.59189 30.0995L4.86994 29.8479H4.86994L4.59189 30.0995ZM4.59189 21.9008L4.86994 22.1524H4.86994L4.59189 21.9008ZM6.13432 21.4867V21.1117H6.11561L6.097 21.1136L6.13432 21.4867ZM6.13434 21.4867V21.8617H6.15304L6.17165 21.8599L6.13434 21.4867ZM9.65027 21.1351L9.68759 21.5083H9.68759L9.65027 21.1351ZM10.9992 17.8786L10.7089 18.1161L10.9992 17.8786ZM8.7614 15.1435L9.05163 14.9061L8.7614 15.1435ZM8.8951 12.4628L9.16026 12.728L8.8951 12.4628ZM12.4637 8.89426L12.7288 9.15943L12.4637 8.89426ZM15.1444 8.76056L15.3818 8.47033L15.1444 8.76056ZM17.8786 10.9977L17.6411 11.2879L17.6473 11.2929L17.6536 11.2977L17.8786 10.9977ZM17.8786 10.9977L18.1161 10.7074L18.1099 10.7024L18.1036 10.6977L17.8786 10.9977ZM20.3373 12.3281L20.1938 11.9816H20.1938L20.3373 12.3281ZM21.1352 9.64877L21.5083 9.68608L21.1352 9.64877ZM21.4866 6.13449L21.8597 6.1718L21.8616 6.15319V6.13449H21.4866ZM21.4866 6.13447L21.1134 6.09716L21.1116 6.11577V6.13447H21.4866ZM21.9007 4.59204L22.1523 4.87009V4.87009L21.9007 4.59204ZM30.0994 4.59204L29.8477 4.87009V4.87009L30.0994 4.59204ZM30.8884 6.13449V6.13447H30.1384V6.13449H30.8884ZM31.2381 9.61231L30.8866 6.09717L30.1403 6.1718L30.4918 9.68694L31.2381 9.61231ZM31.8063 11.9825C31.6988 11.9379 31.5829 11.8276 31.4815 11.4245C31.3799 11.0208 31.321 10.4418 31.2381 9.61231L30.4918 9.68694C30.5722 10.491 30.6358 11.1371 30.7542 11.6075C30.8726 12.0783 31.074 12.4909 31.5193 12.6754L31.8063 11.9825ZM33.884 10.7083C33.2389 11.2362 32.7878 11.604 32.4305 11.8176C32.0738 12.0309 31.9139 12.027 31.8063 11.9825L31.5193 12.6754C31.9646 12.8598 32.3987 12.7105 32.8154 12.4613C33.2317 12.2124 33.7335 11.8005 34.359 11.2888L33.884 10.7083ZM36.6181 8.47131L33.884 10.7083L34.359 11.2888L37.0931 9.05178L36.6181 8.47131ZM38.2578 7.58913C37.9595 7.57426 37.7032 7.67774 37.4543 7.83293C37.2145 7.98246 36.9433 8.2053 36.6181 8.47131L37.0931 9.05178C37.4337 8.77307 37.6618 8.58738 37.8511 8.46935C38.0313 8.35698 38.1339 8.33389 38.2204 8.3382L38.2578 7.58913ZM39.8015 8.63008C39.5044 8.33304 39.2567 8.08432 39.033 7.91167C38.8008 7.73249 38.556 7.60401 38.2578 7.58913L38.2204 8.3382C38.3069 8.34252 38.4067 8.3757 38.5748 8.50544C38.7514 8.64172 38.9599 8.84919 39.2711 9.16041L39.8015 8.63008ZM43.37 12.1986L39.8015 8.63008L39.2711 9.16041L42.8397 12.729L43.37 12.1986ZM44.411 13.7423C44.3961 13.444 44.2676 13.1993 44.0884 12.9671C43.9158 12.7434 43.6671 12.4957 43.37 12.1986L42.8397 12.729C43.1509 13.0402 43.3584 13.2487 43.4947 13.4253C43.6244 13.5934 43.6576 13.6932 43.6619 13.7797L44.411 13.7423ZM43.5288 15.382C43.7948 15.0568 44.0176 14.7856 44.1672 14.5458C44.3224 14.2969 44.4258 14.0406 44.411 13.7423L43.6619 13.7797C43.6662 13.8662 43.6431 13.9688 43.5308 14.149C43.4127 14.3383 43.227 14.5664 42.9483 14.907L43.5288 15.382ZM41.2918 18.1161L43.5288 15.382L42.9483 14.907L40.7113 17.6412L41.2918 18.1161ZM40.0176 20.1939C39.973 20.0863 39.9691 19.9264 40.1825 19.5696C40.3961 19.2124 40.7639 18.7613 41.2918 18.1161L40.7113 17.6412C40.1996 18.2666 39.7877 18.7685 39.5388 19.1847C39.2896 19.6014 39.1403 20.0356 39.3247 20.4809L40.0176 20.1939ZM42.3877 20.7621C41.5583 20.6791 40.9792 20.6202 40.5756 20.5187C40.1724 20.4172 40.0621 20.3014 40.0176 20.1939L39.3247 20.4809C39.5091 20.9261 39.9217 21.1275 40.3926 21.246C40.8629 21.3643 41.509 21.4279 42.3131 21.5083L42.3877 20.7621ZM45.903 21.1136L42.3877 20.7621L42.3131 21.5083L45.8284 21.8599L45.903 21.1136ZM47.6862 21.6492C47.4858 21.4277 47.2314 21.3197 46.9456 21.2534C46.6703 21.1896 46.321 21.1554 45.903 21.1136L45.8284 21.8599C46.2663 21.9037 46.5589 21.9337 46.7762 21.984C46.9831 22.032 47.0719 22.0882 47.1301 22.1524L47.6862 21.6492ZM48.0417 23.4768C48.0417 23.0567 48.0424 22.7057 48.0063 22.4254C47.9688 22.1345 47.8866 21.8706 47.6862 21.6492L47.1301 22.1524C47.1882 22.2167 47.2353 22.3107 47.2624 22.5213C47.291 22.7425 47.2917 23.0367 47.2917 23.4768H48.0417ZM48.0417 28.5235V23.4768H47.2917V28.5235H48.0417ZM47.6862 30.3511C47.8866 30.1297 47.9688 29.8658 48.0063 29.5749C48.0424 29.2946 48.0417 28.9436 48.0417 28.5235H47.2917C47.2917 28.9636 47.291 29.2578 47.2624 29.479C47.2353 29.6896 47.1882 29.7836 47.1301 29.8479L47.6862 30.3511ZM45.903 30.8867C46.321 30.8449 46.6703 30.8107 46.9456 30.7469C47.2314 30.6807 47.4858 30.5726 47.6862 30.3511L47.1301 29.8479C47.0719 29.9121 46.9831 29.9683 46.7762 30.0163C46.5589 30.0667 46.2663 30.0967 45.8284 30.1405L45.903 30.8867ZM42.3886 31.2382L45.903 30.8867L45.8284 30.1405L42.3139 30.4919L42.3886 31.2382ZM40.0184 31.8064C40.063 31.6988 40.1733 31.583 40.5764 31.4816C40.98 31.38 41.5591 31.3211 42.3886 31.2382L42.3139 30.4919C41.5098 30.5723 40.8638 30.6359 40.3934 30.7542C39.9225 30.8727 39.5099 31.0741 39.3255 31.5194L40.0184 31.8064ZM41.2926 33.8841C40.7647 33.239 40.3969 32.7879 40.1833 32.4306C39.9699 32.0738 39.9739 31.9139 40.0184 31.8064L39.3255 31.5194C39.1411 31.9646 39.2904 32.3988 39.5396 32.8155C39.7885 33.2318 40.2004 33.7336 40.7121 34.3591L41.2926 33.8841ZM43.5289 36.6174L41.2926 33.8841L40.7121 34.3591L42.9484 37.0923L43.5289 36.6174ZM44.4111 38.257C44.4259 37.9587 44.3225 37.7024 44.1673 37.4535C44.0177 37.2137 43.7949 36.9425 43.5289 36.6174L42.9484 37.0923C43.2271 37.433 43.4128 37.6611 43.5309 37.8504C43.6432 38.0306 43.6663 38.1331 43.662 38.2197L44.4111 38.257ZM43.3701 39.8007C43.6672 39.5037 43.9159 39.256 44.0885 39.0323C44.2677 38.8001 44.3962 38.5553 44.4111 38.257L43.662 38.2197C43.6577 38.3062 43.6245 38.4059 43.4948 38.5741C43.3585 38.7507 43.151 38.9592 42.8398 39.2704L43.3701 39.8007ZM39.8016 43.3693L43.3701 39.8007L42.8398 39.2704L39.2712 42.839L39.8016 43.3693ZM38.2579 44.4102C38.5562 44.3954 38.8009 44.2669 39.0331 44.0877C39.2568 43.915 39.5045 43.6663 39.8016 43.3693L39.2712 42.839C38.96 43.1502 38.7515 43.3576 38.5749 43.4939C38.4068 43.6237 38.307 43.6568 38.2205 43.6612L38.2579 44.4102ZM36.6182 43.5281C36.9434 43.7941 37.2146 44.0169 37.4544 44.1664C37.7033 44.3216 37.9596 44.4251 38.2579 44.4102L38.2205 43.6612C38.134 43.6655 38.0314 43.6424 37.8512 43.53C37.6619 43.412 37.4338 43.2263 37.0932 42.9476L36.6182 43.5281ZM33.8841 41.2911L36.6182 43.5281L37.0932 42.9476L34.3591 40.7106L33.8841 41.2911ZM31.8064 40.0169C31.914 39.9724 32.0739 39.9684 32.4306 40.1818C32.7879 40.3954 33.239 40.7632 33.8841 41.2911L34.3591 40.7106C33.7336 40.1989 33.2318 39.787 32.8155 39.5381C32.3988 39.2889 31.9647 39.1396 31.5194 39.324L31.8064 40.0169ZM31.2382 42.3871C31.3211 41.5576 31.38 40.9785 31.4816 40.5749C31.583 40.1717 31.6989 40.0615 31.8064 40.0169L31.5194 39.324C31.0741 39.5084 30.8727 39.921 30.7543 40.3919C30.6359 40.8623 30.5723 41.5083 30.4919 42.3124L31.2382 42.3871ZM30.8866 45.9032L31.2382 42.3871L30.4919 42.3124L30.1403 45.8285L30.8866 45.9032ZM30.351 47.6863C30.5724 47.4859 30.6805 47.2315 30.7467 46.9458C30.8106 46.6705 30.8448 46.3211 30.8866 45.9032L30.1403 45.8285C30.0965 46.2665 30.0665 46.5591 30.0161 46.7764C29.9682 46.9833 29.912 47.0721 29.8477 47.1302L30.351 47.6863ZM28.5234 48.0418C28.9434 48.0418 29.2945 48.0426 29.5747 48.0064C29.8656 47.9689 30.1295 47.8867 30.351 47.6863L29.8477 47.1302C29.7835 47.1884 29.6895 47.2354 29.4789 47.2626C29.2576 47.2911 28.9635 47.2918 28.5234 47.2918V48.0418ZM23.4767 48.0418H28.5234V47.2918H23.4767V48.0418ZM21.649 47.6863C21.8705 47.8867 22.1344 47.9689 22.4253 48.0064C22.7056 48.0426 23.0566 48.0418 23.4767 48.0418V47.2918C23.0365 47.2918 22.7424 47.2911 22.5212 47.2626C22.3105 47.2354 22.2165 47.1884 22.1523 47.1302L21.649 47.6863ZM21.1134 45.9032C21.1552 46.3211 21.1894 46.6705 21.2533 46.9458C21.3195 47.2315 21.4276 47.4859 21.649 47.6863L22.1523 47.1302C22.088 47.0721 22.0319 46.9833 21.9839 46.7764C21.9335 46.5591 21.9035 46.2665 21.8597 45.8285L21.1134 45.9032ZM20.7619 42.3879L21.1134 45.9032L21.8597 45.8285L21.5082 42.3133L20.7619 42.3879ZM20.1937 40.0178C20.3012 40.0623 20.4171 40.1726 20.5185 40.5757C20.6201 40.9794 20.679 41.5585 20.7619 42.3879L21.5082 42.3133C21.4278 41.5092 21.3642 40.8631 21.2458 40.3928C21.1274 39.9219 20.926 39.5093 20.4807 39.3249L20.1937 40.0178ZM18.116 41.2919C18.7611 40.7641 19.2122 40.3963 19.5695 40.1826C19.9263 39.9693 20.0862 39.9732 20.1937 40.0178L20.4807 39.3249C20.0354 39.1404 19.6013 39.2897 19.1846 39.5389C18.7683 39.7879 18.2665 40.1997 17.641 40.7115L18.116 41.2919ZM15.3817 43.529L18.116 41.2919L17.641 40.7115L14.9068 42.9486L15.3817 43.529ZM13.7421 44.4112C14.0404 44.4261 14.2967 44.3226 14.5456 44.1674C14.7854 44.0179 15.0566 43.795 15.3817 43.529L14.9068 42.9486C14.5661 43.2273 14.338 43.413 14.1488 43.531C13.9686 43.6434 13.866 43.6665 13.7795 43.6621L13.7421 44.4112ZM12.1984 43.3703C12.4954 43.6673 12.7431 43.916 12.9669 44.0887C13.1991 44.2679 13.4438 44.3963 13.7421 44.4112L13.7795 43.6621C13.6929 43.6578 13.5932 43.6246 13.425 43.4949C13.2484 43.3586 13.0399 43.1512 12.7287 42.8399L12.1984 43.3703ZM8.62983 39.8017L12.1984 43.3703L12.7287 42.8399L9.16016 39.2714L8.62983 39.8017ZM7.58889 38.258C7.60376 38.5563 7.73224 38.801 7.91143 39.0332C8.08407 39.257 8.33279 39.5047 8.62983 39.8017L9.16016 39.2714C8.84895 38.9602 8.64147 38.7517 8.5052 38.5751C8.37546 38.4069 8.34227 38.3072 8.33796 38.2206L7.58889 38.258ZM8.47106 36.6184C8.20505 36.9435 7.98221 37.2147 7.83269 37.4545C7.67749 37.7034 7.57401 37.9597 7.58889 38.258L8.33796 38.2206C8.33364 38.1341 8.35674 38.0316 8.4691 37.8513C8.58713 37.6621 8.77282 37.4339 9.05153 37.0933L8.47106 36.6184ZM10.7081 33.8842L8.47106 36.6184L9.05153 37.0933L11.2886 34.3591L10.7081 33.8842ZM11.9823 31.8065C12.0268 31.914 12.0308 32.0739 11.8174 32.4307C11.6038 32.7879 11.236 33.239 10.7081 33.8842L11.2886 34.3591C11.8003 33.7337 12.2122 33.2319 12.4611 32.8156C12.7103 32.3989 12.8596 31.9647 12.6752 31.5194L11.9823 31.8065ZM9.61214 31.2382C10.4416 31.3212 11.0207 31.3801 11.4243 31.4817C11.8274 31.5831 11.9377 31.6989 11.9823 31.8065L12.6752 31.5194C12.4908 31.0742 12.0782 30.8728 11.6073 30.7543C11.1369 30.636 10.4909 30.5724 9.68677 30.492L9.61214 31.2382ZM6.09702 30.8867L9.61214 31.2382L9.68677 30.492L6.17165 30.1405L6.09702 30.8867ZM6.13432 30.8886H6.13434V30.1386H6.13432V30.8886ZM4.31385 30.3511C4.51425 30.5726 4.76866 30.6806 5.05438 30.7469C5.32968 30.8107 5.67902 30.8449 6.097 30.8867L6.17163 30.1405C5.7337 30.0967 5.4411 30.0667 5.22379 30.0163C5.01692 29.9683 4.92808 29.9121 4.86994 29.8479L4.31385 30.3511ZM3.95834 28.5235C3.95834 28.9436 3.95761 29.2946 3.99374 29.5749C4.03123 29.8658 4.11344 30.1297 4.31385 30.3511L4.86994 29.8479C4.81179 29.7836 4.76473 29.6896 4.73759 29.479C4.70907 29.2578 4.70834 28.9636 4.70834 28.5235H3.95834ZM3.95834 23.4768V28.5235H4.70834V23.4768H3.95834ZM4.31385 21.6492C4.11344 21.8706 4.03123 22.1345 3.99374 22.4254C3.95761 22.7057 3.95834 23.0567 3.95834 23.4768H4.70834C4.70834 23.0367 4.70907 22.7425 4.73759 22.5213C4.76473 22.3107 4.81179 22.2167 4.86994 22.1524L4.31385 21.6492ZM6.097 21.1136C5.67902 21.1554 5.32968 21.1896 5.05438 21.2534C4.76866 21.3197 4.51425 21.4277 4.31385 21.6492L4.86994 22.1524C4.92808 22.0882 5.01692 22.032 5.22379 21.984C5.4411 21.9337 5.7337 21.9037 6.17163 21.8599L6.097 21.1136ZM6.13434 21.1117H6.13432V21.8617H6.13434V21.1117ZM9.61296 20.762L6.09702 21.1136L6.17165 21.8599L9.68759 21.5083L9.61296 20.762ZM11.9831 20.1938C11.9386 20.3013 11.8283 20.4172 11.4251 20.5186C11.0215 20.6201 10.4424 20.6791 9.61296 20.762L9.68759 21.5083C10.4917 21.4279 11.1378 21.3643 11.6081 21.2459C12.079 21.1275 12.4916 20.9261 12.676 20.4808L11.9831 20.1938ZM10.7089 18.1161C11.2368 18.7612 11.6046 19.2123 11.8182 19.5696C12.0316 19.9263 12.0277 20.0862 11.9831 20.1938L12.676 20.4808C12.8605 20.0355 12.7111 19.6014 12.4619 19.1846C12.213 18.7684 11.8011 18.2666 11.2894 17.6411L10.7089 18.1161ZM8.47116 15.381L10.7089 18.1161L11.2894 17.6411L9.05163 14.9061L8.47116 15.381ZM7.58899 13.7414C7.57411 14.0397 7.67759 14.296 7.83279 14.5449C7.98231 14.7847 8.20515 15.0559 8.47116 15.381L9.05163 14.9061C8.77292 14.5654 8.58723 14.3373 8.4692 14.148C8.35683 13.9678 8.33374 13.8653 8.33806 13.7787L7.58899 13.7414ZM8.62993 12.1977C8.33289 12.4947 8.08417 12.7424 7.91153 12.9661C7.73234 13.1983 7.60386 13.4431 7.58899 13.7414L8.33806 13.7787C8.34237 13.6922 8.37556 13.5924 8.50529 13.4243C8.64157 13.2477 8.84904 13.0392 9.16026 12.728L8.62993 12.1977ZM12.1985 8.6291L8.62993 12.1977L9.16026 12.728L12.7288 9.15943L12.1985 8.6291ZM13.7422 7.58815C13.4439 7.60303 13.1992 7.73151 12.967 7.91069C12.7432 8.08334 12.4955 8.33206 12.1985 8.6291L12.7288 9.15943C13.04 8.84821 13.2485 8.64074 13.4251 8.50446C13.5933 8.37472 13.693 8.34154 13.7796 8.33722L13.7422 7.58815ZM15.3818 8.47033C15.0567 8.20432 14.7855 7.98148 14.5457 7.83195C14.2968 7.67676 14.0405 7.57327 13.7422 7.58815L13.7796 8.33722C13.8661 8.33291 13.9686 8.356 14.1489 8.46837C14.3381 8.5864 14.5662 8.77209 14.9069 9.05079L15.3818 8.47033ZM18.1161 10.7074L15.3818 8.47033L14.9069 9.05079L17.6411 11.2879L18.1161 10.7074ZM18.1036 10.6977L18.1036 10.6977L17.6536 11.2977L17.6536 11.2977L18.1036 10.6977ZM20.1938 11.9816C20.0863 12.0261 19.9264 12.0301 19.5696 11.8167C19.2123 11.6031 18.7612 11.2353 18.1161 10.7074L17.6411 11.2879C18.2666 11.7996 18.7684 12.2115 19.1847 12.4604C19.6014 12.7096 20.0355 12.8589 20.4808 12.6745L20.1938 11.9816ZM20.762 9.61145C20.6791 10.4409 20.6202 11.02 20.5186 11.4236C20.4172 11.8268 20.3013 11.9371 20.1938 11.9816L20.4808 12.6745C20.9261 12.4901 21.1275 12.0775 21.2459 11.6066C21.3643 11.1363 21.4279 10.4902 21.5083 9.68608L20.762 9.61145ZM21.1134 6.09718L20.762 9.61145L21.5083 9.68608L21.8597 6.1718L21.1134 6.09718ZM21.1116 6.13447V6.13449H21.8616V6.13447H21.1116ZM21.649 4.314C21.4276 4.5144 21.3195 4.76881 21.2533 5.05454C21.1894 5.32983 21.1552 5.67917 21.1134 6.09716L21.8597 6.17179C21.9035 5.73385 21.9335 5.44125 21.9839 5.22395C22.0319 5.01707 22.088 4.92823 22.1523 4.87009L21.649 4.314ZM23.4767 3.9585C23.0566 3.9585 22.7056 3.95777 22.4253 3.99389C22.1344 4.03138 21.8705 4.11359 21.649 4.314L22.1523 4.87009C22.2165 4.81195 22.3105 4.76488 22.5212 4.73774C22.7424 4.70922 23.0365 4.7085 23.4767 4.7085V3.9585ZM28.5234 3.9585H23.4767V4.7085H28.5234V3.9585ZM30.351 4.314C30.1295 4.11359 29.8656 4.03138 29.5747 3.99389C29.2945 3.95777 28.9434 3.9585 28.5234 3.9585V4.7085C28.9635 4.7085 29.2576 4.70922 29.4789 4.73774C29.6895 4.76488 29.7835 4.81195 29.8477 4.87009L30.351 4.314ZM30.8866 6.09715C30.8448 5.67917 30.8106 5.32983 30.7467 5.05454C30.6805 4.76881 30.5724 4.5144 30.351 4.314L29.8477 4.87009C29.912 4.92823 29.9682 5.01707 30.0161 5.22395C30.0665 5.44125 30.0965 5.73385 30.1403 6.17178L30.8866 6.09715ZM34.2917 26.0002C34.2917 30.5795 30.5794 34.2918 26 34.2918V35.0418C30.9936 35.0418 35.0417 30.9937 35.0417 26.0002H34.2917ZM26 17.7085C30.5794 17.7085 34.2917 21.4208 34.2917 26.0002H35.0417C35.0417 21.0066 30.9936 16.9585 26 16.9585V17.7085ZM17.7083 26.0002C17.7083 21.4208 21.4207 17.7085 26 17.7085V16.9585C21.0064 16.9585 16.9583 21.0066 16.9583 26.0002H17.7083ZM26 34.2918C21.4207 34.2918 17.7083 30.5795 17.7083 26.0002H16.9583C16.9583 30.9937 21.0064 35.0418 26 35.0418V34.2918Z" fill="white"/>
</g>
</svg>
